<svg width="25" height="24" viewBox="0 0 25 24" fill="none" xmlns="http://www.w3.org/2000/svg">
<g clip-path="url(#clip0_44_32)">
<path d="M22.82 6.42C22.7012 5.94541 22.4593 5.51057 22.1186 5.15941C21.778 4.80824 21.3507 4.55318 20.88 4.42C19.16 4 12.28 4 12.28 4C12.28 4 5.39999 4 3.67999 4.46C3.20924 4.59318 2.78197 4.84824 2.44134 5.19941C2.10071 5.55057 1.85878 5.98541 1.73999 6.46C1.42521 8.20556 1.27123 9.97631 1.27999 11.75C1.26877 13.537 1.42276 15.3213 1.73999 17.08C1.87095 17.5398 2.1183 17.9581 2.45813 18.2945C2.79797 18.6308 3.21881 18.8738 3.67999 19C5.39999 19.46 12.28 19.46 12.28 19.46C12.28 19.46 19.16 19.46 20.88 19C21.3507 18.8668 21.778 18.6118 22.1186 18.2606C22.4593 17.9094 22.7012 17.4746 22.82 17C23.1323 15.2676 23.2863 13.5103 23.28 11.75C23.2912 9.96295 23.1372 8.1787 22.82 6.42Z" stroke="#F9F9F9" stroke-width="2" stroke-linecap="round" stroke-linejoin="round"/>
<path d="M10.03 15.02L15.78 11.75L10.03 8.47998V15.02Z" stroke="#F9F9F9" stroke-width="2" stroke-linecap="round" stroke-linejoin="round"/>
</g>
<defs>
<clipPath id="clip0_44_32">
<rect width="24" height="24" fill="white" transform="translate(0.280029)"/>
</clipPath>
</defs>
</svg>
