<svg width="25" height="24" viewBox="0 0 25 24" fill="none" xmlns="http://www.w3.org/2000/svg">
<path d="M17.28 2H7.28003C4.51861 2 2.28003 4.23858 2.28003 7V17C2.28003 19.7614 4.51861 22 7.28003 22H17.28C20.0415 22 22.28 19.7614 22.28 17V7C22.28 4.23858 20.0415 2 17.28 2Z" stroke="#F9F9F9" stroke-width="2" stroke-linecap="round" stroke-linejoin="round"/>
<path d="M16.28 11.3701C16.4034 12.2023 16.2612 13.0523 15.8737 13.7991C15.4862 14.5459 14.8731 15.1515 14.1216 15.5297C13.3701 15.908 12.5184 16.0397 11.6878 15.906C10.8571 15.7723 10.0897 15.3801 9.49482 14.7852C8.8999 14.1903 8.50771 13.4229 8.37405 12.5923C8.24038 11.7616 8.37205 10.91 8.75031 10.1584C9.12857 9.40691 9.73417 8.7938 10.481 8.4063C11.2278 8.0188 12.0777 7.87665 12.91 8.00006C13.7589 8.12594 14.5448 8.52152 15.1517 9.12836C15.7585 9.73521 16.1541 10.5211 16.28 11.3701Z" stroke="#F9F9F9" stroke-width="2" stroke-linecap="round" stroke-linejoin="round"/>
<path d="M17.78 6.5H17.79" stroke="#F9F9F9" stroke-width="2" stroke-linecap="round" stroke-linejoin="round"/>
</svg>
