<svg width="124" height="32" viewBox="0 0 124 32" fill="none" xmlns="http://www.w3.org/2000/svg">
<path d="M0.368 24V1.6H3.056V21.856H13.488V24H0.368ZM18.6525 4.608C18.1192 4.608 17.6712 4.43733 17.3085 4.096C16.9672 3.73333 16.7965 3.28533 16.7965 2.752C16.7965 2.24 16.9672 1.81333 17.3085 1.472C17.6712 1.13067 18.1192 0.959999 18.6525 0.959999C19.1645 0.959999 19.6018 1.13067 19.9645 1.472C20.3272 1.81333 20.5085 2.24 20.5085 2.752C20.5085 3.28533 20.3272 3.73333 19.9645 4.096C19.6018 4.43733 19.1645 4.608 18.6525 4.608ZM17.3085 24V8.128H19.9965V24H17.3085ZM30.9488 19.008C30.0528 19.008 29.2314 18.8907 28.4848 18.656L26.8848 20.16C27.1194 20.3307 27.4074 20.48 27.7488 20.608C28.1114 20.7147 28.6234 20.8213 29.2848 20.928C29.9461 21.0133 30.8741 21.1093 32.0688 21.216C34.2021 21.3653 35.7274 21.856 36.6448 22.688C37.5621 23.52 38.0208 24.608 38.0208 25.952C38.0208 26.8693 37.7648 27.744 37.2528 28.576C36.7621 29.408 35.9941 30.0907 34.9488 30.624C33.9248 31.1573 32.6021 31.424 30.9808 31.424C29.5514 31.424 28.2821 31.232 27.1727 30.848C26.0634 30.4853 25.1994 29.92 24.5807 29.152C23.9621 28.4053 23.6528 27.456 23.6528 26.304C23.6528 25.7067 23.8128 25.056 24.1328 24.352C24.4528 23.6693 25.0501 23.0187 25.9248 22.4C25.4554 22.208 25.0501 22.0053 24.7088 21.792C24.3888 21.5573 24.0901 21.3013 23.8128 21.024V20.288L26.5328 17.6C25.2741 16.5333 24.6448 15.1253 24.6448 13.376C24.6448 12.3307 24.8901 11.3813 25.3808 10.528C25.8714 9.67467 26.5861 9.00267 27.5248 8.512C28.4634 8 29.6048 7.744 30.9488 7.744C31.8661 7.744 32.6981 7.872 33.4448 8.128H39.3008V10.144L36.3248 10.272C36.9434 11.168 37.2528 12.2027 37.2528 13.376C37.2528 14.4213 36.9968 15.3707 36.4848 16.224C35.9941 17.0773 35.2794 17.76 34.3408 18.272C33.4234 18.7627 32.2928 19.008 30.9488 19.008ZM30.9488 16.8C32.0794 16.8 32.9754 16.512 33.6368 15.936C34.3194 15.3387 34.6608 14.4853 34.6608 13.376C34.6608 12.288 34.3194 11.456 33.6368 10.88C32.9754 10.2827 32.0794 9.984 30.9488 9.984C29.7968 9.984 28.8794 10.2827 28.1968 10.88C27.5354 11.456 27.2048 12.288 27.2048 13.376C27.2048 14.4853 27.5354 15.3387 28.1968 15.936C28.8794 16.512 29.7968 16.8 30.9488 16.8ZM26.2768 26.048C26.2768 27.1147 26.7248 27.904 27.6208 28.416C28.5168 28.9493 29.6368 29.216 30.9808 29.216C32.3034 29.216 33.3594 28.928 34.1488 28.352C34.9594 27.776 35.3648 27.008 35.3648 26.048C35.3648 25.3653 35.0874 24.768 34.5328 24.256C33.9781 23.7653 32.9541 23.4773 31.4608 23.392C30.2874 23.3067 29.2741 23.2 28.4208 23.072C27.5461 23.5413 26.9701 24.0427 26.6927 24.576C26.4154 25.1307 26.2768 25.6213 26.2768 26.048ZM42.333 24V0.959999H45.021V10.848C45.5543 9.86667 46.3117 9.10933 47.293 8.576C48.2743 8.02133 49.341 7.744 50.493 7.744C52.3277 7.744 53.7997 8.32 54.909 9.472C56.0183 10.6027 56.573 12.352 56.573 14.72V24H53.917V15.008C53.917 11.7013 52.5837 10.048 49.917 10.048C48.5303 10.048 47.3677 10.5493 46.429 11.552C45.4903 12.5333 45.021 13.9413 45.021 15.776V24H42.333ZM66.9175 24C65.4668 24 64.3255 23.648 63.4935 22.944C62.6615 22.24 62.2455 20.9707 62.2455 19.136V10.4H59.4935V8.128H62.2455L62.5975 4.32H64.9335V8.128H69.6055V10.4H64.9335V19.136C64.9335 20.1387 65.1362 20.8213 65.5415 21.184C65.9468 21.5253 66.6615 21.696 67.6855 21.696H69.3495V24H66.9175ZM79.719 24.384C78.2043 24.384 76.8603 24.0427 75.687 23.36C74.5137 22.656 73.5857 21.6853 72.903 20.448C72.2417 19.2107 71.911 17.7493 71.911 16.064C71.911 14.4 72.2417 12.9493 72.903 11.712C73.5643 10.4533 74.4817 9.48267 75.655 8.8C76.8497 8.096 78.2257 7.744 79.783 7.744C81.319 7.744 82.6417 8.096 83.751 8.8C84.8817 9.48267 85.7457 10.3893 86.343 11.52C86.9403 12.6507 87.239 13.8667 87.239 15.168C87.239 15.4027 87.2283 15.6373 87.207 15.872C87.207 16.1067 87.207 16.3733 87.207 16.672H74.567C74.631 17.888 74.9083 18.9013 75.399 19.712C75.911 20.5013 76.5403 21.0987 77.287 21.504C78.055 21.9093 78.8657 22.112 79.719 22.112C80.8283 22.112 81.7563 21.856 82.503 21.344C83.2497 20.832 83.7937 20.1387 84.135 19.264H86.791C86.3643 20.736 85.543 21.9627 84.327 22.944C83.1323 23.904 81.5963 24.384 79.719 24.384ZM79.719 10.016C78.439 10.016 77.2977 10.4107 76.295 11.2C75.3137 11.968 74.7483 13.0987 74.599 14.592H84.583C84.519 13.1627 84.0283 12.0427 83.111 11.232C82.1937 10.4213 81.063 10.016 79.719 10.016ZM98.0978 24.384C96.5831 24.384 95.2178 24.0427 94.0018 23.36C92.8071 22.656 91.8578 21.6853 91.1538 20.448C90.4711 19.1893 90.1298 17.728 90.1298 16.064C90.1298 14.4 90.4711 12.9493 91.1538 11.712C91.8578 10.4533 92.8071 9.48267 94.0018 8.8C95.2178 8.096 96.5831 7.744 98.0978 7.744C99.9751 7.744 101.554 8.23467 102.834 9.216C104.135 10.1973 104.956 11.5093 105.298 13.152H102.546C102.332 12.1707 101.81 11.4133 100.978 10.88C100.146 10.3253 99.1751 10.048 98.0658 10.048C97.1698 10.048 96.3271 10.272 95.5378 10.72C94.7484 11.168 94.1084 11.84 93.6178 12.736C93.1271 13.632 92.8818 14.7413 92.8818 16.064C92.8818 17.3867 93.1271 18.496 93.6178 19.392C94.1084 20.288 94.7484 20.9707 95.5378 21.44C96.3271 21.888 97.1698 22.112 98.0658 22.112C99.1751 22.112 100.146 21.8453 100.978 21.312C101.81 20.7573 102.332 19.9787 102.546 18.976H105.298C104.978 20.576 104.167 21.8773 102.866 22.88C101.564 23.8827 99.9751 24.384 98.0978 24.384ZM109.052 24V0.959999H111.74V10.848C112.273 9.86667 113.03 9.10933 114.012 8.576C114.993 8.02133 116.06 7.744 117.212 7.744C119.046 7.744 120.518 8.32 121.628 9.472C122.737 10.6027 123.292 12.352 123.292 14.72V24H120.636V15.008C120.636 11.7013 119.302 10.048 116.636 10.048C115.249 10.048 114.086 10.5493 113.148 11.552C112.209 12.5333 111.74 13.9413 111.74 15.776V24H109.052Z" fill="white"/>
</svg>
