<svg width="142" height="53" viewBox="0 0 142 53" fill="none" xmlns="http://www.w3.org/2000/svg">
<path d="M2.368 35V12.6H5.056V32.856H15.488V35H2.368ZM20.6525 15.608C20.1192 15.608 19.6712 15.4373 19.3085 15.096C18.9672 14.7333 18.7965 14.2853 18.7965 13.752C18.7965 13.24 18.9672 12.8133 19.3085 12.472C19.6712 12.1307 20.1192 11.96 20.6525 11.96C21.1645 11.96 21.6018 12.1307 21.9645 12.472C22.3272 12.8133 22.5085 13.24 22.5085 13.752C22.5085 14.2853 22.3272 14.7333 21.9645 15.096C21.6018 15.4373 21.1645 15.608 20.6525 15.608ZM19.3085 35V19.128H21.9965V35H19.3085ZM32.9488 30.008C32.0528 30.008 31.2314 29.8907 30.4848 29.656L28.8848 31.16C29.1194 31.3307 29.4074 31.48 29.7488 31.608C30.1114 31.7147 30.6234 31.8213 31.2848 31.928C31.9461 32.0133 32.8741 32.1093 34.0688 32.216C36.2021 32.3653 37.7274 32.856 38.6448 33.688C39.5621 34.52 40.0208 35.608 40.0208 36.952C40.0208 37.8693 39.7648 38.744 39.2528 39.576C38.7621 40.408 37.9941 41.0907 36.9488 41.624C35.9248 42.1573 34.6021 42.424 32.9808 42.424C31.5514 42.424 30.2821 42.232 29.1727 41.848C28.0634 41.4853 27.1994 40.92 26.5807 40.152C25.9621 39.4053 25.6528 38.456 25.6528 37.304C25.6528 36.7067 25.8128 36.056 26.1328 35.352C26.4528 34.6693 27.0501 34.0187 27.9248 33.4C27.4554 33.208 27.0501 33.0053 26.7088 32.792C26.3888 32.5573 26.0901 32.3013 25.8128 32.024V31.288L28.5328 28.6C27.2741 27.5333 26.6448 26.1253 26.6448 24.376C26.6448 23.3307 26.8901 22.3813 27.3808 21.528C27.8714 20.6747 28.5861 20.0027 29.5248 19.512C30.4634 19 31.6048 18.744 32.9488 18.744C33.8661 18.744 34.6981 18.872 35.4448 19.128H41.3008V21.144L38.3248 21.272C38.9434 22.168 39.2528 23.2027 39.2528 24.376C39.2528 25.4213 38.9968 26.3707 38.4848 27.224C37.9941 28.0773 37.2794 28.76 36.3408 29.272C35.4234 29.7627 34.2928 30.008 32.9488 30.008ZM32.9488 27.8C34.0794 27.8 34.9754 27.512 35.6368 26.936C36.3194 26.3387 36.6608 25.4853 36.6608 24.376C36.6608 23.288 36.3194 22.456 35.6368 21.88C34.9754 21.2827 34.0794 20.984 32.9488 20.984C31.7968 20.984 30.8794 21.2827 30.1968 21.88C29.5354 22.456 29.2048 23.288 29.2048 24.376C29.2048 25.4853 29.5354 26.3387 30.1968 26.936C30.8794 27.512 31.7968 27.8 32.9488 27.8ZM28.2768 37.048C28.2768 38.1147 28.7248 38.904 29.6208 39.416C30.5168 39.9493 31.6368 40.216 32.9808 40.216C34.3034 40.216 35.3594 39.928 36.1488 39.352C36.9594 38.776 37.3648 38.008 37.3648 37.048C37.3648 36.3653 37.0874 35.768 36.5328 35.256C35.9781 34.7653 34.9541 34.4773 33.4608 34.392C32.2874 34.3067 31.2741 34.2 30.4208 34.072C29.5461 34.5413 28.9701 35.0427 28.6927 35.576C28.4154 36.1307 28.2768 36.6213 28.2768 37.048ZM44.333 35V11.96H47.021V21.848C47.5543 20.8667 48.3117 20.1093 49.293 19.576C50.2743 19.0213 51.341 18.744 52.493 18.744C54.3277 18.744 55.7997 19.32 56.909 20.472C58.0183 21.6027 58.573 23.352 58.573 25.72V35H55.917V26.008C55.917 22.7013 54.5837 21.048 51.917 21.048C50.5303 21.048 49.3677 21.5493 48.429 22.552C47.4903 23.5333 47.021 24.9413 47.021 26.776V35H44.333ZM68.9175 35C67.4668 35 66.3255 34.648 65.4935 33.944C64.6615 33.24 64.2455 31.9707 64.2455 30.136V21.4H61.4935V19.128H64.2455L64.5975 15.32H66.9335V19.128H71.6055V21.4H66.9335V30.136C66.9335 31.1387 67.1362 31.8213 67.5415 32.184C67.9468 32.5253 68.6615 32.696 69.6855 32.696H71.3495V35H68.9175ZM81.719 35.384C80.2043 35.384 78.8603 35.0427 77.687 34.36C76.5137 33.656 75.5857 32.6853 74.903 31.448C74.2417 30.2107 73.911 28.7493 73.911 27.064C73.911 25.4 74.2417 23.9493 74.903 22.712C75.5643 21.4533 76.4817 20.4827 77.655 19.8C78.8497 19.096 80.2257 18.744 81.783 18.744C83.319 18.744 84.6417 19.096 85.751 19.8C86.8817 20.4827 87.7457 21.3893 88.343 22.52C88.9403 23.6507 89.239 24.8667 89.239 26.168C89.239 26.4027 89.2283 26.6373 89.207 26.872C89.207 27.1067 89.207 27.3733 89.207 27.672H76.567C76.631 28.888 76.9083 29.9013 77.399 30.712C77.911 31.5013 78.5403 32.0987 79.287 32.504C80.055 32.9093 80.8657 33.112 81.719 33.112C82.8283 33.112 83.7563 32.856 84.503 32.344C85.2497 31.832 85.7937 31.1387 86.135 30.264H88.791C88.3643 31.736 87.543 32.9627 86.327 33.944C85.1323 34.904 83.5963 35.384 81.719 35.384ZM81.719 21.016C80.439 21.016 79.2977 21.4107 78.295 22.2C77.3137 22.968 76.7483 24.0987 76.599 25.592H86.583C86.519 24.1627 86.0283 23.0427 85.111 22.232C84.1937 21.4213 83.063 21.016 81.719 21.016ZM100.098 35.384C98.5831 35.384 97.2178 35.0427 96.0018 34.36C94.8071 33.656 93.8578 32.6853 93.1538 31.448C92.4711 30.1893 92.1298 28.728 92.1298 27.064C92.1298 25.4 92.4711 23.9493 93.1538 22.712C93.8578 21.4533 94.8071 20.4827 96.0018 19.8C97.2178 19.096 98.5831 18.744 100.098 18.744C101.975 18.744 103.554 19.2347 104.834 20.216C106.135 21.1973 106.956 22.5093 107.298 24.152H104.546C104.332 23.1707 103.81 22.4133 102.978 21.88C102.146 21.3253 101.175 21.048 100.066 21.048C99.1698 21.048 98.3271 21.272 97.5378 21.72C96.7484 22.168 96.1084 22.84 95.6178 23.736C95.1271 24.632 94.8818 25.7413 94.8818 27.064C94.8818 28.3867 95.1271 29.496 95.6178 30.392C96.1084 31.288 96.7484 31.9707 97.5378 32.44C98.3271 32.888 99.1698 33.112 100.066 33.112C101.175 33.112 102.146 32.8453 102.978 32.312C103.81 31.7573 104.332 30.9787 104.546 29.976H107.298C106.978 31.576 106.167 32.8773 104.866 33.88C103.564 34.8827 101.975 35.384 100.098 35.384ZM111.052 35V11.96H113.74V21.848C114.273 20.8667 115.03 20.1093 116.012 19.576C116.993 19.0213 118.06 18.744 119.212 18.744C121.046 18.744 122.518 19.32 123.628 20.472C124.737 21.6027 125.292 23.352 125.292 25.72V35H122.636V26.008C122.636 22.7013 121.302 21.048 118.636 21.048C117.249 21.048 116.086 21.5493 115.148 22.552C114.209 23.5333 113.74 24.9413 113.74 26.776V35H111.052ZM130.292 35.16C129.759 35.16 129.311 34.9893 128.948 34.648C128.607 34.2853 128.436 33.848 128.436 33.336C128.436 32.824 128.607 32.3973 128.948 32.056C129.311 31.6933 129.759 31.512 130.292 31.512C130.804 31.512 131.231 31.6933 131.572 32.056C131.935 32.3973 132.116 32.824 132.116 33.336C132.116 33.848 131.935 34.2853 131.572 34.648C131.231 34.9893 130.804 35.16 130.292 35.16Z" fill="#2D9CDB"/>
<path d="M2.368 35H1.368V36H2.368V35ZM2.368 12.6V11.6H1.368V12.6H2.368ZM5.056 12.6H6.056V11.6H5.056V12.6ZM5.056 32.856H4.056V33.856H5.056V32.856ZM15.488 32.856H16.488V31.856H15.488V32.856ZM15.488 35V36H16.488V35H15.488ZM3.368 35V12.6H1.368V35H3.368ZM2.368 13.6H5.056V11.6H2.368V13.6ZM4.056 12.6V32.856H6.056V12.6H4.056ZM5.056 33.856H15.488V31.856H5.056V33.856ZM14.488 32.856V35H16.488V32.856H14.488ZM15.488 34H2.368V36H15.488V34ZM19.3085 15.096L18.5803 15.7814L18.6011 15.8034L18.6231 15.8242L19.3085 15.096ZM19.3085 12.472L18.6231 11.7438L18.6121 11.7542L18.6014 11.7649L19.3085 12.472ZM21.9645 12.472L22.6499 11.7438L22.6499 11.7438L21.9645 12.472ZM21.9645 15.096L22.6499 15.8242L22.6609 15.8138L22.6716 15.8031L21.9645 15.096ZM19.3085 35H18.3085V36H19.3085V35ZM19.3085 19.128V18.128H18.3085V19.128H19.3085ZM21.9965 19.128H22.9965V18.128H21.9965V19.128ZM21.9965 35V36H22.9965V35H21.9965ZM20.6525 14.608C20.3541 14.608 20.1571 14.5214 19.9939 14.3678L18.6231 15.8242C19.1852 16.3532 19.8842 16.608 20.6525 16.608V14.608ZM20.0367 14.4106C19.8831 14.2474 19.7965 14.0504 19.7965 13.752H17.7965C17.7965 14.5203 18.0513 15.2193 18.5803 15.7814L20.0367 14.4106ZM19.7965 13.752C19.7965 13.4874 19.8741 13.3206 20.0156 13.1791L18.6014 11.7649C18.0603 12.306 17.7965 12.9926 17.7965 13.752H19.7965ZM19.9939 13.2002C20.1571 13.0466 20.3541 12.96 20.6525 12.96V10.96C19.8842 10.96 19.1852 11.2148 18.6231 11.7438L19.9939 13.2002ZM20.6525 12.96C20.9177 12.96 21.1077 13.0388 21.2791 13.2002L22.6499 11.7438C22.096 11.2225 21.4113 10.96 20.6525 10.96V12.96ZM21.2791 13.2002C21.4347 13.3466 21.5085 13.507 21.5085 13.752H23.5085C23.5085 12.973 23.2196 12.28 22.6499 11.7438L21.2791 13.2002ZM21.5085 13.752C21.5085 14.0319 21.4243 14.2219 21.2574 14.3889L22.6716 15.8031C23.23 15.2447 23.5085 14.5388 23.5085 13.752H21.5085ZM21.2791 14.3678C21.1077 14.5292 20.9177 14.608 20.6525 14.608V16.608C21.4113 16.608 22.096 16.3455 22.6499 15.8242L21.2791 14.3678ZM20.3085 35V19.128H18.3085V35H20.3085ZM19.3085 20.128H21.9965V18.128H19.3085V20.128ZM20.9965 19.128V35H22.9965V19.128H20.9965ZM21.9965 34H19.3085V36H21.9965V34ZM30.4848 29.656L30.7846 28.702L30.2263 28.5265L29.7998 28.9274L30.4848 29.656ZM28.8848 31.16L28.1998 30.4314L27.32 31.2585L28.2966 31.9687L28.8848 31.16ZM29.7488 31.608L29.3976 32.5443L29.4317 32.5571L29.4666 32.5674L29.7488 31.608ZM31.2848 31.928L31.1255 32.9152L31.1411 32.9178L31.1568 32.9198L31.2848 31.928ZM34.0688 32.216L33.9798 33.212L33.9894 33.2129L33.9989 33.2136L34.0688 32.216ZM38.6448 33.688L37.9729 34.4287L37.9729 34.4287L38.6448 33.688ZM39.2528 39.576L38.4011 39.0519L38.3962 39.0599L38.3914 39.068L39.2528 39.576ZM36.9488 41.624L36.4943 40.7332L36.4868 40.7371L36.9488 41.624ZM29.1727 41.848L29.4999 40.903L29.4917 40.9002L29.4835 40.8975L29.1727 41.848ZM26.5807 40.152L27.3596 39.5246L27.3508 39.514L26.5807 40.152ZM26.1328 35.352L25.2272 34.9275L25.2224 34.9382L26.1328 35.352ZM27.9248 33.4L28.5022 34.2164L29.9897 33.1643L28.3034 32.4745L27.9248 33.4ZM26.7088 32.792L26.1174 33.5984L26.1473 33.6203L26.1788 33.64L26.7088 32.792ZM25.8128 32.024H24.8128V32.4382L25.1056 32.7311L25.8128 32.024ZM25.8128 31.288L25.1098 30.5767L24.8128 30.8703V31.288H25.8128ZM28.5328 28.6L29.2357 29.3113L30.0127 28.5434L29.1793 27.8371L28.5328 28.6ZM27.3808 21.528L26.5138 21.0295L26.5138 21.0295L27.3808 21.528ZM29.5248 19.512L29.988 20.3982L29.9958 20.3941L30.0036 20.3899L29.5248 19.512ZM35.4448 19.128L35.1204 20.0739L35.2781 20.128H35.4448V19.128ZM41.3008 19.128H42.3008V18.128H41.3008V19.128ZM41.3008 21.144L41.3437 22.1431L42.3008 22.1019V21.144H41.3008ZM38.3248 21.272L38.2818 20.2729L36.4734 20.3507L37.5019 21.8402L38.3248 21.272ZM38.4848 27.224L37.6273 26.7095L37.6225 26.7175L37.6178 26.7255L38.4848 27.224ZM36.3408 29.272L36.8124 30.1538L36.8196 30.1499L36.3408 29.272ZM35.6368 26.936L36.2935 27.6901L36.2953 27.6886L35.6368 26.936ZM35.6368 21.88L34.9665 22.6221L34.979 22.6334L34.9919 22.6443L35.6368 21.88ZM30.1968 21.88L30.8535 22.6341L30.8553 22.6326L30.1968 21.88ZM30.1968 26.936L29.5265 27.6781L29.539 27.6894L29.5519 27.7003L30.1968 26.936ZM29.6208 39.416L30.1322 38.5567L30.1246 38.5522L30.1169 38.5478L29.6208 39.416ZM36.1488 39.352L35.5695 38.5368L35.5593 38.5442L36.1488 39.352ZM36.5328 35.256L37.211 34.5212L37.2033 34.514L37.1953 34.507L36.5328 35.256ZM33.4608 34.392L33.3882 35.3894L33.396 35.3899L33.4037 35.3904L33.4608 34.392ZM30.4208 34.072L30.5691 33.0831L30.2406 33.0338L29.9479 33.1908L30.4208 34.072ZM28.6927 35.576L27.8055 35.1146L27.8019 35.1217L27.7983 35.1288L28.6927 35.576ZM32.9488 29.008C32.14 29.008 31.4213 28.9021 30.7846 28.702L30.1849 30.61C31.0415 30.8792 31.9655 31.008 32.9488 31.008V29.008ZM29.7998 28.9274L28.1998 30.4314L29.5697 31.8886L31.1697 30.3846L29.7998 28.9274ZM28.2966 31.9687C28.62 32.2039 28.9924 32.3924 29.3976 32.5443L30.0999 30.6717C29.8224 30.5676 29.6188 30.4574 29.4729 30.3513L28.2966 31.9687ZM29.4666 32.5674C29.889 32.6916 30.4491 32.8061 31.1255 32.9152L31.444 30.9408C30.7977 30.8365 30.3338 30.7377 30.0309 30.6486L29.4666 32.5674ZM31.1568 32.9198C31.8375 33.0076 32.7806 33.105 33.9798 33.212L34.1577 31.22C32.9675 31.1137 32.0547 31.0191 31.4127 30.9362L31.1568 32.9198ZM33.9989 33.2136C36.055 33.3575 37.3051 33.823 37.9729 34.4287L39.3166 32.9473C38.1498 31.889 36.3491 31.3732 34.1386 31.2184L33.9989 33.2136ZM37.9729 34.4287C38.6621 35.0538 39.0208 35.8632 39.0208 36.952H41.0208C41.0208 35.3528 40.4621 33.9862 39.3166 32.9473L37.9729 34.4287ZM39.0208 36.952C39.0208 37.6721 38.8227 38.3668 38.4011 39.0519L40.1044 40.1001C40.7068 39.1212 41.0208 38.0665 41.0208 36.952H39.0208ZM38.3914 39.068C38.0162 39.7042 37.407 40.2676 36.4943 40.7332L37.4032 42.5148C38.5812 41.9138 39.508 41.1118 40.1141 40.084L38.3914 39.068ZM36.4868 40.7371C35.6513 41.1722 34.5025 41.424 32.9808 41.424V43.424C34.7017 43.424 36.1982 43.1424 37.4107 42.5109L36.4868 40.7371ZM32.9808 41.424C31.6394 41.424 30.4839 41.2437 29.4999 40.903L28.8456 42.793C30.0802 43.2203 31.4635 43.424 32.9808 43.424V41.424ZM29.4835 40.8975C28.5238 40.5838 27.8359 40.1161 27.3595 39.5247L25.802 40.7793C26.5629 41.7239 27.603 42.3869 28.862 42.7985L29.4835 40.8975ZM27.3508 39.514C26.9075 38.979 26.6528 38.2688 26.6528 37.304H24.6528C24.6528 38.6432 25.0166 39.8316 25.8107 40.79L27.3508 39.514ZM26.6528 37.304C26.6528 36.8849 26.7655 36.3766 27.0431 35.7658L25.2224 34.9382C24.86 35.7354 24.6528 36.5284 24.6528 37.304H26.6528ZM27.0382 35.7764C27.2601 35.303 27.7128 34.7748 28.5022 34.2164L27.3473 32.5836C26.3874 33.2625 25.6454 34.0357 25.2273 34.9276L27.0382 35.7764ZM28.3034 32.4745C27.8738 32.2987 27.5214 32.1207 27.2387 31.944L26.1788 33.64C26.5787 33.89 27.0371 34.1173 27.5461 34.3255L28.3034 32.4745ZM27.3001 31.9856C27.0207 31.7807 26.7608 31.5578 26.5199 31.3169L25.1056 32.7311C25.4194 33.0449 25.7568 33.334 26.1174 33.5984L27.3001 31.9856ZM26.8128 32.024V31.288H24.8128V32.024H26.8128ZM26.5157 31.9993L29.2357 29.3113L27.8298 27.8887L25.1098 30.5767L26.5157 31.9993ZM29.1793 27.8371C28.1598 26.9731 27.6448 25.8517 27.6448 24.376H25.6448C25.6448 26.399 26.3884 28.0935 27.8862 29.3629L29.1793 27.8371ZM27.6448 24.376C27.6448 23.4944 27.8496 22.7187 28.2477 22.0265L26.5138 21.0295C25.9305 22.044 25.6448 23.167 25.6448 24.376H27.6448ZM28.2477 22.0265C28.6362 21.3508 29.2047 20.8077 29.988 20.3982L29.0615 18.6258C27.9675 19.1976 27.1067 19.9985 26.5138 21.0295L28.2477 22.0265ZM30.0036 20.3899C30.7623 19.9761 31.7299 19.744 32.9488 19.744V17.744C31.4796 17.744 30.1645 18.0239 29.0459 18.6341L30.0036 20.3899ZM32.9488 19.744C33.7733 19.744 34.4935 19.859 35.1204 20.0739L35.7691 18.1821C34.9026 17.885 33.9589 17.744 32.9488 17.744V19.744ZM35.4448 20.128H41.3008V18.128H35.4448V20.128ZM40.3008 19.128V21.144H42.3008V19.128H40.3008ZM41.2578 20.1449L38.2818 20.2729L38.3677 22.2711L41.3437 22.1431L41.2578 20.1449ZM37.5019 21.8402C37.9961 22.556 38.2528 23.3891 38.2528 24.376H40.2528C40.2528 23.0162 39.8907 21.78 39.1476 20.7038L37.5019 21.8402ZM38.2528 24.376C38.2528 25.2496 38.0412 26.0196 37.6273 26.7095L39.3422 27.7385C39.9523 26.7218 40.2528 25.593 40.2528 24.376H38.2528ZM37.6178 26.7255C37.227 27.4053 36.6532 27.9625 35.8619 28.3941L36.8196 30.1499C37.9057 29.5575 38.7612 28.7493 39.3517 27.7225L37.6178 26.7255ZM35.8691 28.3902C35.1331 28.7839 34.1749 29.008 32.9488 29.008V31.008C34.4106 31.008 35.7138 30.7414 36.8124 30.1538L35.8691 28.3902ZM32.9488 28.8C34.2493 28.8 35.4026 28.466 36.2935 27.6901L34.98 26.1819C34.5482 26.558 33.9095 26.8 32.9488 26.8V28.8ZM36.2953 27.6886C37.2425 26.8597 37.6608 25.7038 37.6608 24.376H35.6608C35.6608 25.2669 35.3963 25.8176 34.9782 26.1834L36.2953 27.6886ZM37.6608 24.376C37.6608 23.0638 37.2382 21.9229 36.2816 21.1157L34.9919 22.6443C35.4006 22.9891 35.6608 23.5122 35.6608 24.376H37.6608ZM36.307 21.1379C35.4165 20.3335 34.2582 19.984 32.9488 19.984V21.984C33.9007 21.984 34.5343 22.2318 34.9665 22.6221L36.307 21.1379ZM32.9488 19.984C31.6219 19.984 30.4482 20.3312 29.5382 21.1274L30.8553 22.6326C31.3106 22.2341 31.9716 21.984 32.9488 21.984V19.984ZM29.54 21.1259C28.6096 21.9363 28.2048 23.0742 28.2048 24.376H30.2048C30.2048 23.5018 30.4613 22.9757 30.8535 22.6341L29.54 21.1259ZM28.2048 24.376C28.2048 25.6937 28.6057 26.8464 29.5265 27.6781L30.867 26.1939C30.4652 25.8309 30.2048 25.2769 30.2048 24.376H28.2048ZM29.5519 27.7003C30.4619 28.4681 31.6304 28.8 32.9488 28.8V26.8C31.9631 26.8 31.2969 26.5559 30.8416 26.1717L29.5519 27.7003ZM27.2768 37.048C27.2768 38.4586 27.9043 39.5869 29.1246 40.2842L30.1169 38.5478C29.5452 38.2211 29.2768 37.7707 29.2768 37.048H27.2768ZM29.1093 40.2753C30.1986 40.9237 31.5077 41.216 32.9808 41.216V39.216C31.7658 39.216 30.8349 38.9749 30.1322 38.5567L29.1093 40.2753ZM32.9808 41.216C34.4415 41.216 35.7265 40.8981 36.7382 40.1598L35.5593 38.5442C34.9924 38.9579 34.1653 39.216 32.9808 39.216V41.216ZM36.728 40.1672C37.7914 39.4116 38.3648 38.3454 38.3648 37.048H36.3648C36.3648 37.6706 36.1275 38.1404 35.5695 38.5368L36.728 40.1672ZM38.3648 37.048C38.3648 36.055 37.9467 35.2003 37.211 34.5212L35.8545 35.9908C36.2282 36.3357 36.3648 36.6756 36.3648 37.048H38.3648ZM37.1953 34.507C36.3703 33.7772 35.0439 33.4808 33.5178 33.3936L33.4037 35.3904C34.8642 35.4738 35.5858 35.7534 35.8702 36.005L37.1953 34.507ZM33.5333 33.3946C32.3769 33.3105 31.3901 33.2062 30.5691 33.0831L30.2724 35.0609C31.158 35.1938 32.1979 35.3028 33.3882 35.3894L33.5333 33.3946ZM29.9479 33.1908C29.0004 33.6993 28.2184 34.3208 27.8055 35.1146L29.58 36.0374C29.7218 35.7646 30.0917 35.3834 30.8936 34.9532L29.9479 33.1908ZM27.7983 35.1288C27.4807 35.764 27.2768 36.4119 27.2768 37.048H29.2768C29.2768 36.8308 29.3501 36.4974 29.5872 36.0232L27.7983 35.1288ZM44.333 35H43.333V36H44.333V35ZM44.333 11.96V10.96H43.333V11.96H44.333ZM47.021 11.96H48.021V10.96H47.021V11.96ZM47.021 21.848H46.021L47.8996 22.3255L47.021 21.848ZM49.293 19.576L49.7705 20.4546L49.7778 20.4507L49.7851 20.4466L49.293 19.576ZM56.909 20.472L56.1886 21.1657L56.1952 21.1723L56.909 20.472ZM58.573 35V36H59.573V35H58.573ZM55.917 35H54.917V36H55.917V35ZM48.429 22.552L49.1517 23.2433L49.159 23.2354L48.429 22.552ZM47.021 35V36H48.021V35H47.021ZM45.333 35V11.96H43.333V35H45.333ZM44.333 12.96H47.021V10.96H44.333V12.96ZM46.021 11.96V21.848H48.021V11.96H46.021ZM47.8996 22.3255C48.3408 21.5138 48.9588 20.8958 49.7705 20.4546L48.8155 18.6974C47.6645 19.3229 46.7679 20.2195 46.1424 21.3705L47.8996 22.3255ZM49.7851 20.4466C50.6129 19.9787 51.5095 19.744 52.493 19.744V17.744C51.1725 17.744 49.9358 18.064 48.8009 18.7054L49.7851 20.4466ZM52.493 19.744C54.0996 19.744 55.2961 20.2388 56.1887 21.1656L57.6293 19.7784C56.3032 18.4012 54.5558 17.744 52.493 17.744V19.744ZM56.1952 21.1723C57.0477 22.0412 57.573 23.486 57.573 25.72H59.573C59.573 23.218 58.989 21.1641 57.6228 19.7717L56.1952 21.1723ZM57.573 25.72V35H59.573V25.72H57.573ZM58.573 34H55.917V36H58.573V34ZM56.917 35V26.008H54.917V35H56.917ZM56.917 26.008C56.917 24.2464 56.5661 22.7399 55.6954 21.6602C54.7916 20.5395 53.4683 20.048 51.917 20.048V22.048C53.0324 22.048 53.7091 22.3832 54.1386 22.9158C54.6012 23.4894 54.917 24.4629 54.917 26.008H56.917ZM51.917 20.048C50.2567 20.048 48.8288 20.6618 47.699 21.8686L49.159 23.2354C49.9066 22.4369 50.804 22.048 51.917 22.048V20.048ZM47.7064 21.8608C46.5347 23.0857 46.021 24.7761 46.021 26.776H48.021C48.021 25.1065 48.4459 23.981 49.1516 23.2432L47.7064 21.8608ZM46.021 26.776V35H48.021V26.776H46.021ZM47.021 34H44.333V36H47.021V34ZM64.2455 21.4H65.2455V20.4H64.2455V21.4ZM61.4935 21.4H60.4935V22.4H61.4935V21.4ZM61.4935 19.128V18.128H60.4935V19.128H61.4935ZM64.2455 19.128V20.128H65.1573L65.2413 19.22L64.2455 19.128ZM64.5975 15.32V14.32H63.6857L63.6017 15.228L64.5975 15.32ZM66.9335 15.32H67.9335V14.32H66.9335V15.32ZM66.9335 19.128H65.9335V20.128H66.9335V19.128ZM71.6055 19.128H72.6055V18.128H71.6055V19.128ZM71.6055 21.4V22.4H72.6055V21.4H71.6055ZM66.9335 21.4V20.4H65.9335V21.4H66.9335ZM67.5415 32.184L66.8747 32.9292L66.8859 32.9392L66.8974 32.9489L67.5415 32.184ZM71.3495 32.696H72.3495V31.696H71.3495V32.696ZM71.3495 35V36H72.3495V35H71.3495ZM68.9175 34C67.6244 34 66.7386 33.6876 66.1394 33.1806L64.8476 34.7074C65.9124 35.6084 67.3093 36 68.9175 36V34ZM66.1394 33.1806C65.6469 32.7638 65.2455 31.8708 65.2455 30.136H63.2455C63.2455 32.0705 63.6761 33.7162 64.8476 34.7074L66.1394 33.1806ZM65.2455 30.136V21.4H63.2455V30.136H65.2455ZM64.2455 20.4H61.4935V22.4H64.2455V20.4ZM62.4935 21.4V19.128H60.4935V21.4H62.4935ZM61.4935 20.128H64.2455V18.128H61.4935V20.128ZM65.2413 19.22L65.5933 15.412L63.6017 15.228L63.2497 19.036L65.2413 19.22ZM64.5975 16.32H66.9335V14.32H64.5975V16.32ZM65.9335 15.32V19.128H67.9335V15.32H65.9335ZM66.9335 20.128H71.6055V18.128H66.9335V20.128ZM70.6055 19.128V21.4H72.6055V19.128H70.6055ZM71.6055 20.4H66.9335V22.4H71.6055V20.4ZM65.9335 21.4V30.136H67.9335V21.4H65.9335ZM65.9335 30.136C65.9335 31.2028 66.1354 32.2677 66.8747 32.9292L68.2083 31.4388C68.137 31.3749 67.9335 31.0746 67.9335 30.136H65.9335ZM66.8974 32.9489C67.5883 33.5308 68.6153 33.696 69.6855 33.696V31.696C68.7077 31.696 68.3054 31.5199 68.1856 31.4191L66.8974 32.9489ZM69.6855 33.696H71.3495V31.696H69.6855V33.696ZM70.3495 32.696V35H72.3495V32.696H70.3495ZM71.3495 34H68.9175V36H71.3495V34ZM77.687 34.36L77.1725 35.2176L77.1841 35.2243L77.687 34.36ZM74.903 31.448L74.021 31.9194L74.0274 31.9311L74.903 31.448ZM74.903 22.712L75.785 23.1834L75.7882 23.1771L74.903 22.712ZM77.655 19.8L78.1579 20.6644L78.1627 20.6615L77.655 19.8ZM85.751 19.8L85.2152 20.6443L85.2246 20.6503L85.2341 20.6561L85.751 19.8ZM88.343 22.52L89.2272 22.0529L88.343 22.52ZM89.207 26.872L88.2111 26.7815L88.207 26.8266V26.872H89.207ZM89.207 27.672V28.672H90.207V27.672H89.207ZM76.567 27.672V26.672H75.513L75.5684 27.7246L76.567 27.672ZM77.399 30.712L76.5435 31.2298L76.5516 31.2431L76.56 31.2562L77.399 30.712ZM79.287 32.504L78.8099 33.3829L78.8202 33.3884L79.287 32.504ZM84.503 32.344L83.9375 31.5193L83.9375 31.5193L84.503 32.344ZM86.135 30.264V29.264H85.4518L85.2034 29.9005L86.135 30.264ZM88.791 30.264L89.7515 30.5424L90.122 29.264H88.791V30.264ZM86.327 33.944L86.9534 34.7235L86.955 34.7222L86.327 33.944ZM78.295 22.2L78.9113 22.9875L78.9136 22.9857L78.295 22.2ZM76.599 25.592L75.604 25.4925L75.494 26.592H76.599V25.592ZM86.583 25.592V26.592H87.6288L87.582 25.5473L86.583 25.592ZM85.111 22.232L85.7732 21.4827L85.7732 21.4827L85.111 22.232ZM81.719 34.384C80.3601 34.384 79.1934 34.0795 78.1899 33.4957L77.1841 35.2243C78.5273 36.0058 80.0486 36.384 81.719 36.384V34.384ZM78.2015 33.5025C77.1845 32.8923 76.3789 32.0531 75.7786 30.9649L74.0274 31.9311C74.7924 33.3176 75.8428 34.4197 77.1725 35.2175L78.2015 33.5025ZM75.7849 30.9766C75.2153 29.9108 74.911 28.6178 74.911 27.064H72.911C72.911 28.8809 73.2681 30.5105 74.0211 31.9194L75.7849 30.9766ZM74.911 27.064C74.911 25.5339 75.2143 24.2509 75.7849 23.1834L74.0211 22.2406C73.269 23.6477 72.911 25.2661 72.911 27.064H74.911ZM75.7882 23.1771C76.3665 22.0765 77.1549 21.2479 78.1579 20.6643L77.1521 18.9357C75.8085 19.7174 74.7622 20.8301 74.0178 22.2469L75.7882 23.1771ZM78.1627 20.6615C79.1852 20.059 80.3817 19.744 81.783 19.744V17.744C80.0696 17.744 78.5141 18.133 77.1473 18.9385L78.1627 20.6615ZM81.783 19.744C83.1619 19.744 84.2916 20.0582 85.2152 20.6443L86.2868 18.9557C84.9918 18.1338 83.4761 17.744 81.783 17.744V19.744ZM85.2341 20.6561C86.2147 21.2481 86.9492 22.0225 87.4588 22.9871L89.2272 22.0529C88.5421 20.7562 87.5487 19.7172 86.2679 18.9439L85.2341 20.6561ZM87.4588 22.9871C87.9787 23.9712 88.239 25.0265 88.239 26.168H90.239C90.239 24.7068 89.902 23.3301 89.2272 22.0529L87.4588 22.9871ZM88.239 26.168C88.239 26.3723 88.2297 26.5768 88.2111 26.7815L90.2029 26.9625C90.227 26.6979 90.239 26.433 90.239 26.168H88.239ZM88.207 26.872C88.207 26.8725 88.207 26.8729 88.207 26.8734C88.207 26.8738 88.207 26.8743 88.207 26.8748C88.207 26.8752 88.207 26.8757 88.207 26.8761C88.207 26.8766 88.207 26.877 88.207 26.8775C88.207 26.878 88.207 26.8784 88.207 26.8789C88.207 26.8793 88.207 26.8798 88.207 26.8803C88.207 26.8807 88.207 26.8812 88.207 26.8816C88.207 26.8821 88.207 26.8826 88.207 26.883C88.207 26.8835 88.207 26.8839 88.207 26.8844C88.207 26.8849 88.207 26.8853 88.207 26.8858C88.207 26.8862 88.207 26.8867 88.207 26.8872C88.207 26.8876 88.207 26.8881 88.207 26.8886C88.207 26.889 88.207 26.8895 88.207 26.8899C88.207 26.8904 88.207 26.8909 88.207 26.8913C88.207 26.8918 88.207 26.8922 88.207 26.8927C88.207 26.8932 88.207 26.8936 88.207 26.8941C88.207 26.8946 88.207 26.895 88.207 26.8955C88.207 26.8959 88.207 26.8964 88.207 26.8969C88.207 26.8973 88.207 26.8978 88.207 26.8983C88.207 26.8987 88.207 26.8992 88.207 26.8996C88.207 26.9001 88.207 26.9006 88.207 26.901C88.207 26.9015 88.207 26.902 88.207 26.9024C88.207 26.9029 88.207 26.9034 88.207 26.9038C88.207 26.9043 88.207 26.9047 88.207 26.9052C88.207 26.9057 88.207 26.9061 88.207 26.9066C88.207 26.9071 88.207 26.9075 88.207 26.908C88.207 26.9085 88.207 26.9089 88.207 26.9094C88.207 26.9099 88.207 26.9103 88.207 26.9108C88.207 26.9113 88.207 26.9117 88.207 26.9122C88.207 26.9126 88.207 26.9131 88.207 26.9136C88.207 26.914 88.207 26.9145 88.207 26.915C88.207 26.9154 88.207 26.9159 88.207 26.9164C88.207 26.9168 88.207 26.9173 88.207 26.9178C88.207 26.9182 88.207 26.9187 88.207 26.9192C88.207 26.9196 88.207 26.9201 88.207 26.9206C88.207 26.921 88.207 26.9215 88.207 26.922C88.207 26.9224 88.207 26.9229 88.207 26.9234C88.207 26.9238 88.207 26.9243 88.207 26.9248C88.207 26.9252 88.207 26.9257 88.207 26.9262C88.207 26.9266 88.207 26.9271 88.207 26.9276C88.207 26.9281 88.207 26.9285 88.207 26.929C88.207 26.9295 88.207 26.9299 88.207 26.9304C88.207 26.9309 88.207 26.9313 88.207 26.9318C88.207 26.9323 88.207 26.9327 88.207 26.9332C88.207 26.9337 88.207 26.9341 88.207 26.9346C88.207 26.9351 88.207 26.9356 88.207 26.936C88.207 26.9365 88.207 26.937 88.207 26.9374C88.207 26.9379 88.207 26.9384 88.207 26.9388C88.207 26.9393 88.207 26.9398 88.207 26.9403C88.207 26.9407 88.207 26.9412 88.207 26.9417C88.207 26.9421 88.207 26.9426 88.207 26.9431C88.207 26.9435 88.207 26.944 88.207 26.9445C88.207 26.945 88.207 26.9454 88.207 26.9459C88.207 26.9464 88.207 26.9468 88.207 26.9473C88.207 26.9478 88.207 26.9483 88.207 26.9487C88.207 26.9492 88.207 26.9497 88.207 26.9501C88.207 26.9506 88.207 26.9511 88.207 26.9516C88.207 26.952 88.207 26.9525 88.207 26.953C88.207 26.9535 88.207 26.9539 88.207 26.9544C88.207 26.9549 88.207 26.9553 88.207 26.9558C88.207 26.9563 88.207 26.9568 88.207 26.9572C88.207 26.9577 88.207 26.9582 88.207 26.9587C88.207 26.9591 88.207 26.9596 88.207 26.9601C88.207 26.9606 88.207 26.961 88.207 26.9615C88.207 26.962 88.207 26.9624 88.207 26.9629C88.207 26.9634 88.207 26.9639 88.207 26.9643C88.207 26.9648 88.207 26.9653 88.207 26.9658C88.207 26.9662 88.207 26.9667 88.207 26.9672C88.207 26.9677 88.207 26.9681 88.207 26.9686C88.207 26.9691 88.207 26.9696 88.207 26.97C88.207 26.9705 88.207 26.971 88.207 26.9715C88.207 26.9719 88.207 26.9724 88.207 26.9729C88.207 26.9734 88.207 26.9739 88.207 26.9743C88.207 26.9748 88.207 26.9753 88.207 26.9758C88.207 26.9762 88.207 26.9767 88.207 26.9772C88.207 26.9777 88.207 26.9781 88.207 26.9786C88.207 26.9791 88.207 26.9796 88.207 26.98C88.207 26.9805 88.207 26.981 88.207 26.9815C88.207 26.982 88.207 26.9824 88.207 26.9829C88.207 26.9834 88.207 26.9839 88.207 26.9843C88.207 26.9848 88.207 26.9853 88.207 26.9858C88.207 26.9863 88.207 26.9867 88.207 26.9872C88.207 26.9877 88.207 26.9882 88.207 26.9886C88.207 26.9891 88.207 26.9896 88.207 26.9901C88.207 26.9906 88.207 26.991 88.207 26.9915C88.207 26.992 88.207 26.9925 88.207 26.993C88.207 26.9934 88.207 26.9939 88.207 26.9944C88.207 26.9949 88.207 26.9954 88.207 26.9958C88.207 26.9963 88.207 26.9968 88.207 26.9973C88.207 26.9978 88.207 26.9982 88.207 26.9987C88.207 26.9992 88.207 26.9997 88.207 27.0002C88.207 27.0006 88.207 27.0011 88.207 27.0016C88.207 27.0021 88.207 27.0026 88.207 27.003C88.207 27.0035 88.207 27.004 88.207 27.0045C88.207 27.005 88.207 27.0054 88.207 27.0059C88.207 27.0064 88.207 27.0069 88.207 27.0074C88.207 27.0079 88.207 27.0083 88.207 27.0088C88.207 27.0093 88.207 27.0098 88.207 27.0103C88.207 27.0107 88.207 27.0112 88.207 27.0117C88.207 27.0122 88.207 27.0127 88.207 27.0132C88.207 27.0136 88.207 27.0141 88.207 27.0146C88.207 27.0151 88.207 27.0156 88.207 27.0161C88.207 27.0165 88.207 27.017 88.207 27.0175C88.207 27.018 88.207 27.0185 88.207 27.019C88.207 27.0194 88.207 27.0199 88.207 27.0204C88.207 27.0209 88.207 27.0214 88.207 27.0219C88.207 27.0223 88.207 27.0228 88.207 27.0233C88.207 27.0238 88.207 27.0243 88.207 27.0248C88.207 27.0253 88.207 27.0257 88.207 27.0262C88.207 27.0267 88.207 27.0272 88.207 27.0277C88.207 27.0282 88.207 27.0287 88.207 27.0291C88.207 27.0296 88.207 27.0301 88.207 27.0306C88.207 27.0311 88.207 27.0316 88.207 27.0321C88.207 27.0325 88.207 27.033 88.207 27.0335C88.207 27.034 88.207 27.0345 88.207 27.035C88.207 27.0355 88.207 27.0359 88.207 27.0364C88.207 27.0369 88.207 27.0374 88.207 27.0379C88.207 27.0384 88.207 27.0389 88.207 27.0393C88.207 27.0398 88.207 27.0403 88.207 27.0408C88.207 27.0413 88.207 27.0418 88.207 27.0423C88.207 27.0428 88.207 27.0432 88.207 27.0437C88.207 27.0442 88.207 27.0447 88.207 27.0452C88.207 27.0457 88.207 27.0462 88.207 27.0467C88.207 27.0472 88.207 27.0476 88.207 27.0481C88.207 27.0486 88.207 27.0491 88.207 27.0496C88.207 27.0501 88.207 27.0506 88.207 27.0511C88.207 27.0516 88.207 27.052 88.207 27.0525C88.207 27.053 88.207 27.0535 88.207 27.054C88.207 27.0545 88.207 27.055 88.207 27.0555C88.207 27.056 88.207 27.0564 88.207 27.0569C88.207 27.0574 88.207 27.0579 88.207 27.0584C88.207 27.0589 88.207 27.0594 88.207 27.0599C88.207 27.0604 88.207 27.0609 88.207 27.0614C88.207 27.0618 88.207 27.0623 88.207 27.0628C88.207 27.0633 88.207 27.0638 88.207 27.0643C88.207 27.0648 88.207 27.0653 88.207 27.0658C88.207 27.0663 88.207 27.0668 88.207 27.0672C88.207 27.0677 88.207 27.0682 88.207 27.0687C88.207 27.0692 88.207 27.0697 88.207 27.0702C88.207 27.0707 88.207 27.0712 88.207 27.0717C88.207 27.0722 88.207 27.0727 88.207 27.0732C88.207 27.0736 88.207 27.0741 88.207 27.0746C88.207 27.0751 88.207 27.0756 88.207 27.0761C88.207 27.0766 88.207 27.0771 88.207 27.0776C88.207 27.0781 88.207 27.0786 88.207 27.0791C88.207 27.0796 88.207 27.0801 88.207 27.0806C88.207 27.081 88.207 27.0815 88.207 27.082C88.207 27.0825 88.207 27.083 88.207 27.0835C88.207 27.084 88.207 27.0845 88.207 27.085C88.207 27.0855 88.207 27.086 88.207 27.0865C88.207 27.087 88.207 27.0875 88.207 27.088C88.207 27.0885 88.207 27.089 88.207 27.0895C88.207 27.09 88.207 27.0905 88.207 27.0909C88.207 27.0914 88.207 27.0919 88.207 27.0924C88.207 27.0929 88.207 27.0934 88.207 27.0939C88.207 27.0944 88.207 27.0949 88.207 27.0954C88.207 27.0959 88.207 27.0964 88.207 27.0969C88.207 27.0974 88.207 27.0979 88.207 27.0984C88.207 27.0989 88.207 27.0994 88.207 27.0999C88.207 27.1004 88.207 27.1009 88.207 27.1014C88.207 27.1019 88.207 27.1024 88.207 27.1029C88.207 27.1034 88.207 27.1039 88.207 27.1044C88.207 27.1049 88.207 27.1054 88.207 27.1059C88.207 27.1064 88.207 27.1069 88.207 27.1073C88.207 27.1078 88.207 27.1083 88.207 27.1088C88.207 27.1093 88.207 27.1098 88.207 27.1103C88.207 27.1108 88.207 27.1113 88.207 27.1118C88.207 27.1123 88.207 27.1128 88.207 27.1133C88.207 27.1138 88.207 27.1143 88.207 27.1148C88.207 27.1153 88.207 27.1158 88.207 27.1163C88.207 27.1168 88.207 27.1173 88.207 27.1178C88.207 27.1183 88.207 27.1188 88.207 27.1193C88.207 27.1198 88.207 27.1203 88.207 27.1208C88.207 27.1213 88.207 27.1218 88.207 27.1223C88.207 27.1228 88.207 27.1233 88.207 27.1238C88.207 27.1243 88.207 27.1248 88.207 27.1253C88.207 27.1258 88.207 27.1263 88.207 27.1268C88.207 27.1273 88.207 27.1279 88.207 27.1284C88.207 27.1289 88.207 27.1294 88.207 27.1299C88.207 27.1304 88.207 27.1309 88.207 27.1314C88.207 27.1319 88.207 27.1324 88.207 27.1329C88.207 27.1334 88.207 27.1339 88.207 27.1344C88.207 27.1349 88.207 27.1354 88.207 27.1359C88.207 27.1364 88.207 27.1369 88.207 27.1374C88.207 27.1379 88.207 27.1384 88.207 27.1389C88.207 27.1394 88.207 27.1399 88.207 27.1404C88.207 27.1409 88.207 27.1414 88.207 27.1419C88.207 27.1424 88.207 27.1429 88.207 27.1434C88.207 27.1439 88.207 27.1445 88.207 27.145C88.207 27.1455 88.207 27.146 88.207 27.1465C88.207 27.147 88.207 27.1475 88.207 27.148C88.207 27.1485 88.207 27.149 88.207 27.1495C88.207 27.15 88.207 27.1505 88.207 27.151C88.207 27.1515 88.207 27.152 88.207 27.1525C88.207 27.153 88.207 27.1535 88.207 27.154C88.207 27.1546 88.207 27.1551 88.207 27.1556C88.207 27.1561 88.207 27.1566 88.207 27.1571C88.207 27.1576 88.207 27.1581 88.207 27.1586C88.207 27.1591 88.207 27.1596 88.207 27.1601C88.207 27.1606 88.207 27.1611 88.207 27.1616C88.207 27.1622 88.207 27.1627 88.207 27.1632C88.207 27.1637 88.207 27.1642 88.207 27.1647C88.207 27.1652 88.207 27.1657 88.207 27.1662C88.207 27.1667 88.207 27.1672 88.207 27.1677C88.207 27.1682 88.207 27.1688 88.207 27.1693C88.207 27.1698 88.207 27.1703 88.207 27.1708C88.207 27.1713 88.207 27.1718 88.207 27.1723C88.207 27.1728 88.207 27.1733 88.207 27.1738C88.207 27.1744 88.207 27.1749 88.207 27.1754C88.207 27.1759 88.207 27.1764 88.207 27.1769C88.207 27.1774 88.207 27.1779 88.207 27.1784C88.207 27.1789 88.207 27.1794 88.207 27.18C88.207 27.1805 88.207 27.181 88.207 27.1815C88.207 27.182 88.207 27.1825 88.207 27.183C88.207 27.1835 88.207 27.184 88.207 27.1846C88.207 27.1851 88.207 27.1856 88.207 27.1861C88.207 27.1866 88.207 27.1871 88.207 27.1876C88.207 27.1881 88.207 27.1886 88.207 27.1892C88.207 27.1897 88.207 27.1902 88.207 27.1907C88.207 27.1912 88.207 27.1917 88.207 27.1922C88.207 27.1927 88.207 27.1932 88.207 27.1938C88.207 27.1943 88.207 27.1948 88.207 27.1953C88.207 27.1958 88.207 27.1963 88.207 27.1968C88.207 27.1973 88.207 27.1979 88.207 27.1984C88.207 27.1989 88.207 27.1994 88.207 27.1999C88.207 27.2004 88.207 27.2009 88.207 27.2015C88.207 27.202 88.207 27.2025 88.207 27.203C88.207 27.2035 88.207 27.204 88.207 27.2045C88.207 27.2051 88.207 27.2056 88.207 27.2061C88.207 27.2066 88.207 27.2071 88.207 27.2076C88.207 27.2081 88.207 27.2087 88.207 27.2092C88.207 27.2097 88.207 27.2102 88.207 27.2107C88.207 27.2112 88.207 27.2117 88.207 27.2123C88.207 27.2128 88.207 27.2133 88.207 27.2138C88.207 27.2143 88.207 27.2148 88.207 27.2153C88.207 27.2159 88.207 27.2164 88.207 27.2169C88.207 27.2174 88.207 27.2179 88.207 27.2184C88.207 27.219 88.207 27.2195 88.207 27.22C88.207 27.2205 88.207 27.221 88.207 27.2215C88.207 27.2221 88.207 27.2226 88.207 27.2231C88.207 27.2236 88.207 27.2241 88.207 27.2246C88.207 27.2252 88.207 27.2257 88.207 27.2262C88.207 27.2267 88.207 27.2272 88.207 27.2277C88.207 27.2283 88.207 27.2288 88.207 27.2293C88.207 27.2298 88.207 27.2303 88.207 27.2309C88.207 27.2314 88.207 27.2319 88.207 27.2324C88.207 27.2329 88.207 27.2334 88.207 27.234C88.207 27.2345 88.207 27.235 88.207 27.2355C88.207 27.236 88.207 27.2366 88.207 27.2371C88.207 27.2376 88.207 27.2381 88.207 27.2386C88.207 27.2392 88.207 27.2397 88.207 27.2402C88.207 27.2407 88.207 27.2412 88.207 27.2418C88.207 27.2423 88.207 27.2428 88.207 27.2433C88.207 27.2438 88.207 27.2444 88.207 27.2449C88.207 27.2454 88.207 27.2459 88.207 27.2464C88.207 27.247 88.207 27.2475 88.207 27.248C88.207 27.2485 88.207 27.249 88.207 27.2496C88.207 27.2501 88.207 27.2506 88.207 27.2511C88.207 27.2516 88.207 27.2522 88.207 27.2527C88.207 27.2532 88.207 27.2537 88.207 27.2543C88.207 27.2548 88.207 27.2553 88.207 27.2558C88.207 27.2563 88.207 27.2569 88.207 27.2574C88.207 27.2579 88.207 27.2584 88.207 27.259C88.207 27.2595 88.207 27.26 88.207 27.2605C88.207 27.261 88.207 27.2616 88.207 27.2621C88.207 27.2626 88.207 27.2631 88.207 27.2637C88.207 27.2642 88.207 27.2647 88.207 27.2652C88.207 27.2658 88.207 27.2663 88.207 27.2668C88.207 27.2673 88.207 27.2678 88.207 27.2684C88.207 27.2689 88.207 27.2694 88.207 27.2699C88.207 27.2705 88.207 27.271 88.207 27.2715C88.207 27.272 88.207 27.2726 88.207 27.2731C88.207 27.2736 88.207 27.2741 88.207 27.2747C88.207 27.2752 88.207 27.2757 88.207 27.2762C88.207 27.2768 88.207 27.2773 88.207 27.2778C88.207 27.2783 88.207 27.2789 88.207 27.2794C88.207 27.2799 88.207 27.2804 88.207 27.281C88.207 27.2815 88.207 27.282 88.207 27.2826C88.207 27.2831 88.207 27.2836 88.207 27.2841C88.207 27.2847 88.207 27.2852 88.207 27.2857C88.207 27.2862 88.207 27.2868 88.207 27.2873C88.207 27.2878 88.207 27.2883 88.207 27.2889C88.207 27.2894 88.207 27.2899 88.207 27.2905C88.207 27.291 88.207 27.2915 88.207 27.292C88.207 27.2926 88.207 27.2931 88.207 27.2936C88.207 27.2941 88.207 27.2947 88.207 27.2952C88.207 27.2957 88.207 27.2963 88.207 27.2968C88.207 27.2973 88.207 27.2978 88.207 27.2984C88.207 27.2989 88.207 27.2994 88.207 27.3C88.207 27.3005 88.207 27.301 88.207 27.3015C88.207 27.3021 88.207 27.3026 88.207 27.3031C88.207 27.3037 88.207 27.3042 88.207 27.3047C88.207 27.3053 88.207 27.3058 88.207 27.3063C88.207 27.3068 88.207 27.3074 88.207 27.3079C88.207 27.3084 88.207 27.309 88.207 27.3095C88.207 27.31 88.207 27.3106 88.207 27.3111C88.207 27.3116 88.207 27.3121 88.207 27.3127C88.207 27.3132 88.207 27.3137 88.207 27.3143C88.207 27.3148 88.207 27.3153 88.207 27.3159C88.207 27.3164 88.207 27.3169 88.207 27.3175C88.207 27.318 88.207 27.3185 88.207 27.3191C88.207 27.3196 88.207 27.3201 88.207 27.3206C88.207 27.3212 88.207 27.3217 88.207 27.3222C88.207 27.3228 88.207 27.3233 88.207 27.3238C88.207 27.3244 88.207 27.3249 88.207 27.3254C88.207 27.326 88.207 27.3265 88.207 27.327C88.207 27.3276 88.207 27.3281 88.207 27.3286C88.207 27.3292 88.207 27.3297 88.207 27.3302C88.207 27.3308 88.207 27.3313 88.207 27.3318C88.207 27.3324 88.207 27.3329 88.207 27.3334C88.207 27.334 88.207 27.3345 88.207 27.335C88.207 27.3356 88.207 27.3361 88.207 27.3366C88.207 27.3372 88.207 27.3377 88.207 27.3383C88.207 27.3388 88.207 27.3393 88.207 27.3399C88.207 27.3404 88.207 27.3409 88.207 27.3415C88.207 27.342 88.207 27.3425 88.207 27.3431C88.207 27.3436 88.207 27.3441 88.207 27.3447C88.207 27.3452 88.207 27.3457 88.207 27.3463C88.207 27.3468 88.207 27.3474 88.207 27.3479C88.207 27.3484 88.207 27.349 88.207 27.3495C88.207 27.35 88.207 27.3506 88.207 27.3511C88.207 27.3516 88.207 27.3522 88.207 27.3527C88.207 27.3533 88.207 27.3538 88.207 27.3543C88.207 27.3549 88.207 27.3554 88.207 27.3559C88.207 27.3565 88.207 27.357 88.207 27.3576C88.207 27.3581 88.207 27.3586 88.207 27.3592C88.207 27.3597 88.207 27.3602 88.207 27.3608C88.207 27.3613 88.207 27.3619 88.207 27.3624C88.207 27.3629 88.207 27.3635 88.207 27.364C88.207 27.3646 88.207 27.3651 88.207 27.3656C88.207 27.3662 88.207 27.3667 88.207 27.3672C88.207 27.3678 88.207 27.3683 88.207 27.3689C88.207 27.3694 88.207 27.3699 88.207 27.3705C88.207 27.371 88.207 27.3716 88.207 27.3721C88.207 27.3726 88.207 27.3732 88.207 27.3737C88.207 27.3743 88.207 27.3748 88.207 27.3753C88.207 27.3759 88.207 27.3764 88.207 27.377C88.207 27.3775 88.207 27.378 88.207 27.3786C88.207 27.3791 88.207 27.3797 88.207 27.3802C88.207 27.3808 88.207 27.3813 88.207 27.3818C88.207 27.3824 88.207 27.3829 88.207 27.3835C88.207 27.384 88.207 27.3845 88.207 27.3851C88.207 27.3856 88.207 27.3862 88.207 27.3867C88.207 27.3873 88.207 27.3878 88.207 27.3883C88.207 27.3889 88.207 27.3894 88.207 27.39C88.207 27.3905 88.207 27.391 88.207 27.3916C88.207 27.3921 88.207 27.3927 88.207 27.3932C88.207 27.3938 88.207 27.3943 88.207 27.3948C88.207 27.3954 88.207 27.3959 88.207 27.3965C88.207 27.397 88.207 27.3976 88.207 27.3981C88.207 27.3987 88.207 27.3992 88.207 27.3997C88.207 27.4003 88.207 27.4008 88.207 27.4014C88.207 27.4019 88.207 27.4025 88.207 27.403C88.207 27.4036 88.207 27.4041 88.207 27.4046C88.207 27.4052 88.207 27.4057 88.207 27.4063C88.207 27.4068 88.207 27.4074 88.207 27.4079C88.207 27.4085 88.207 27.409 88.207 27.4095C88.207 27.4101 88.207 27.4106 88.207 27.4112C88.207 27.4117 88.207 27.4123 88.207 27.4128C88.207 27.4134 88.207 27.4139 88.207 27.4145C88.207 27.415 88.207 27.4156 88.207 27.4161C88.207 27.4166 88.207 27.4172 88.207 27.4177C88.207 27.4183 88.207 27.4188 88.207 27.4194C88.207 27.4199 88.207 27.4205 88.207 27.421C88.207 27.4216 88.207 27.4221 88.207 27.4227C88.207 27.4232 88.207 27.4238 88.207 27.4243C88.207 27.4249 88.207 27.4254 88.207 27.4259C88.207 27.4265 88.207 27.427 88.207 27.4276C88.207 27.4281 88.207 27.4287 88.207 27.4292C88.207 27.4298 88.207 27.4303 88.207 27.4309C88.207 27.4314 88.207 27.432 88.207 27.4325C88.207 27.4331 88.207 27.4336 88.207 27.4342C88.207 27.4347 88.207 27.4353 88.207 27.4358C88.207 27.4364 88.207 27.4369 88.207 27.4375C88.207 27.438 88.207 27.4386 88.207 27.4391C88.207 27.4397 88.207 27.4402 88.207 27.4408C88.207 27.4413 88.207 27.4419 88.207 27.4424C88.207 27.443 88.207 27.4435 88.207 27.4441C88.207 27.4446 88.207 27.4452 88.207 27.4457C88.207 27.4463 88.207 27.4468 88.207 27.4474C88.207 27.4479 88.207 27.4485 88.207 27.449C88.207 27.4496 88.207 27.4501 88.207 27.4507C88.207 27.4512 88.207 27.4518 88.207 27.4523C88.207 27.4529 88.207 27.4534 88.207 27.454C88.207 27.4546 88.207 27.4551 88.207 27.4557C88.207 27.4562 88.207 27.4568 88.207 27.4573C88.207 27.4579 88.207 27.4584 88.207 27.459C88.207 27.4595 88.207 27.4601 88.207 27.4606C88.207 27.4612 88.207 27.4617 88.207 27.4623C88.207 27.4628 88.207 27.4634 88.207 27.464C88.207 27.4645 88.207 27.4651 88.207 27.4656C88.207 27.4662 88.207 27.4667 88.207 27.4673C88.207 27.4678 88.207 27.4684 88.207 27.4689C88.207 27.4695 88.207 27.47 88.207 27.4706C88.207 27.4712 88.207 27.4717 88.207 27.4723C88.207 27.4728 88.207 27.4734 88.207 27.4739C88.207 27.4745 88.207 27.475 88.207 27.4756C88.207 27.4761 88.207 27.4767 88.207 27.4773C88.207 27.4778 88.207 27.4784 88.207 27.4789C88.207 27.4795 88.207 27.48 88.207 27.4806C88.207 27.4811 88.207 27.4817 88.207 27.4823C88.207 27.4828 88.207 27.4834 88.207 27.4839C88.207 27.4845 88.207 27.485 88.207 27.4856C88.207 27.4862 88.207 27.4867 88.207 27.4873C88.207 27.4878 88.207 27.4884 88.207 27.4889C88.207 27.4895 88.207 27.4901 88.207 27.4906C88.207 27.4912 88.207 27.4917 88.207 27.4923C88.207 27.4928 88.207 27.4934 88.207 27.494C88.207 27.4945 88.207 27.4951 88.207 27.4956C88.207 27.4962 88.207 27.4968 88.207 27.4973C88.207 27.4979 88.207 27.4984 88.207 27.499C88.207 27.4995 88.207 27.5001 88.207 27.5007C88.207 27.5012 88.207 27.5018 88.207 27.5023C88.207 27.5029 88.207 27.5035 88.207 27.504C88.207 27.5046 88.207 27.5051 88.207 27.5057C88.207 27.5063 88.207 27.5068 88.207 27.5074C88.207 27.5079 88.207 27.5085 88.207 27.5091C88.207 27.5096 88.207 27.5102 88.207 27.5107C88.207 27.5113 88.207 27.5119 88.207 27.5124C88.207 27.513 88.207 27.5135 88.207 27.5141C88.207 27.5147 88.207 27.5152 88.207 27.5158C88.207 27.5163 88.207 27.5169 88.207 27.5175C88.207 27.518 88.207 27.5186 88.207 27.5192C88.207 27.5197 88.207 27.5203 88.207 27.5208C88.207 27.5214 88.207 27.522 88.207 27.5225C88.207 27.5231 88.207 27.5236 88.207 27.5242C88.207 27.5248 88.207 27.5253 88.207 27.5259C88.207 27.5265 88.207 27.527 88.207 27.5276C88.207 27.5281 88.207 27.5287 88.207 27.5293C88.207 27.5298 88.207 27.5304 88.207 27.531C88.207 27.5315 88.207 27.5321 88.207 27.5327C88.207 27.5332 88.207 27.5338 88.207 27.5343C88.207 27.5349 88.207 27.5355 88.207 27.536C88.207 27.5366 88.207 27.5372 88.207 27.5377C88.207 27.5383 88.207 27.5389 88.207 27.5394C88.207 27.54 88.207 27.5405 88.207 27.5411C88.207 27.5417 88.207 27.5422 88.207 27.5428C88.207 27.5434 88.207 27.5439 88.207 27.5445C88.207 27.5451 88.207 27.5456 88.207 27.5462C88.207 27.5468 88.207 27.5473 88.207 27.5479C88.207 27.5485 88.207 27.549 88.207 27.5496C88.207 27.5502 88.207 27.5507 88.207 27.5513C88.207 27.5519 88.207 27.5524 88.207 27.553C88.207 27.5536 88.207 27.5541 88.207 27.5547C88.207 27.5553 88.207 27.5558 88.207 27.5564C88.207 27.557 88.207 27.5575 88.207 27.5581C88.207 27.5587 88.207 27.5592 88.207 27.5598C88.207 27.5604 88.207 27.5609 88.207 27.5615C88.207 27.5621 88.207 27.5626 88.207 27.5632C88.207 27.5638 88.207 27.5643 88.207 27.5649C88.207 27.5655 88.207 27.566 88.207 27.5666C88.207 27.5672 88.207 27.5677 88.207 27.5683C88.207 27.5689 88.207 27.5695 88.207 27.57C88.207 27.5706 88.207 27.5712 88.207 27.5717C88.207 27.5723 88.207 27.5729 88.207 27.5734C88.207 27.574 88.207 27.5746 88.207 27.5751C88.207 27.5757 88.207 27.5763 88.207 27.5769C88.207 27.5774 88.207 27.578 88.207 27.5786C88.207 27.5791 88.207 27.5797 88.207 27.5803C88.207 27.5808 88.207 27.5814 88.207 27.582C88.207 27.5826 88.207 27.5831 88.207 27.5837C88.207 27.5843 88.207 27.5848 88.207 27.5854C88.207 27.586 88.207 27.5866 88.207 27.5871C88.207 27.5877 88.207 27.5883 88.207 27.5888C88.207 27.5894 88.207 27.59 88.207 27.5906C88.207 27.5911 88.207 27.5917 88.207 27.5923C88.207 27.5928 88.207 27.5934 88.207 27.594C88.207 27.5946 88.207 27.5951 88.207 27.5957C88.207 27.5963 88.207 27.5969 88.207 27.5974C88.207 27.598 88.207 27.5986 88.207 27.5991C88.207 27.5997 88.207 27.6003 88.207 27.6009C88.207 27.6014 88.207 27.602 88.207 27.6026C88.207 27.6032 88.207 27.6037 88.207 27.6043C88.207 27.6049 88.207 27.6055 88.207 27.606C88.207 27.6066 88.207 27.6072 88.207 27.6078C88.207 27.6083 88.207 27.6089 88.207 27.6095C88.207 27.61 88.207 27.6106 88.207 27.6112C88.207 27.6118 88.207 27.6123 88.207 27.6129C88.207 27.6135 88.207 27.6141 88.207 27.6146C88.207 27.6152 88.207 27.6158 88.207 27.6164C88.207 27.6169 88.207 27.6175 88.207 27.6181C88.207 27.6187 88.207 27.6193 88.207 27.6198C88.207 27.6204 88.207 27.621 88.207 27.6216C88.207 27.6221 88.207 27.6227 88.207 27.6233C88.207 27.6239 88.207 27.6244 88.207 27.625C88.207 27.6256 88.207 27.6262 88.207 27.6267C88.207 27.6273 88.207 27.6279 88.207 27.6285C88.207 27.6291 88.207 27.6296 88.207 27.6302C88.207 27.6308 88.207 27.6314 88.207 27.6319C88.207 27.6325 88.207 27.6331 88.207 27.6337C88.207 27.6343 88.207 27.6348 88.207 27.6354C88.207 27.636 88.207 27.6366 88.207 27.6371C88.207 27.6377 88.207 27.6383 88.207 27.6389C88.207 27.6395 88.207 27.64 88.207 27.6406C88.207 27.6412 88.207 27.6418 88.207 27.6424C88.207 27.6429 88.207 27.6435 88.207 27.6441C88.207 27.6447 88.207 27.6453 88.207 27.6458C88.207 27.6464 88.207 27.647 88.207 27.6476C88.207 27.6482 88.207 27.6487 88.207 27.6493C88.207 27.6499 88.207 27.6505 88.207 27.6511C88.207 27.6516 88.207 27.6522 88.207 27.6528C88.207 27.6534 88.207 27.654 88.207 27.6545C88.207 27.6551 88.207 27.6557 88.207 27.6563C88.207 27.6569 88.207 27.6574 88.207 27.658C88.207 27.6586 88.207 27.6592 88.207 27.6598C88.207 27.6603 88.207 27.6609 88.207 27.6615C88.207 27.6621 88.207 27.6627 88.207 27.6633C88.207 27.6638 88.207 27.6644 88.207 27.665C88.207 27.6656 88.207 27.6662 88.207 27.6668C88.207 27.6673 88.207 27.6679 88.207 27.6685C88.207 27.6691 88.207 27.6697 88.207 27.6702C88.207 27.6708 88.207 27.6714 88.207 27.672H90.207C90.207 27.6714 90.207 27.6708 90.207 27.6702C90.207 27.6697 90.207 27.6691 90.207 27.6685C90.207 27.6679 90.207 27.6673 90.207 27.6668C90.207 27.6662 90.207 27.6656 90.207 27.665C90.207 27.6644 90.207 27.6638 90.207 27.6633C90.207 27.6627 90.207 27.6621 90.207 27.6615C90.207 27.6609 90.207 27.6603 90.207 27.6598C90.207 27.6592 90.207 27.6586 90.207 27.658C90.207 27.6574 90.207 27.6569 90.207 27.6563C90.207 27.6557 90.207 27.6551 90.207 27.6545C90.207 27.654 90.207 27.6534 90.207 27.6528C90.207 27.6522 90.207 27.6516 90.207 27.6511C90.207 27.6505 90.207 27.6499 90.207 27.6493C90.207 27.6487 90.207 27.6482 90.207 27.6476C90.207 27.647 90.207 27.6464 90.207 27.6458C90.207 27.6453 90.207 27.6447 90.207 27.6441C90.207 27.6435 90.207 27.6429 90.207 27.6424C90.207 27.6418 90.207 27.6412 90.207 27.6406C90.207 27.64 90.207 27.6395 90.207 27.6389C90.207 27.6383 90.207 27.6377 90.207 27.6371C90.207 27.6366 90.207 27.636 90.207 27.6354C90.207 27.6348 90.207 27.6343 90.207 27.6337C90.207 27.6331 90.207 27.6325 90.207 27.6319C90.207 27.6314 90.207 27.6308 90.207 27.6302C90.207 27.6296 90.207 27.6291 90.207 27.6285C90.207 27.6279 90.207 27.6273 90.207 27.6267C90.207 27.6262 90.207 27.6256 90.207 27.625C90.207 27.6244 90.207 27.6239 90.207 27.6233C90.207 27.6227 90.207 27.6221 90.207 27.6216C90.207 27.621 90.207 27.6204 90.207 27.6198C90.207 27.6193 90.207 27.6187 90.207 27.6181C90.207 27.6175 90.207 27.6169 90.207 27.6164C90.207 27.6158 90.207 27.6152 90.207 27.6146C90.207 27.6141 90.207 27.6135 90.207 27.6129C90.207 27.6123 90.207 27.6118 90.207 27.6112C90.207 27.6106 90.207 27.61 90.207 27.6095C90.207 27.6089 90.207 27.6083 90.207 27.6078C90.207 27.6072 90.207 27.6066 90.207 27.606C90.207 27.6055 90.207 27.6049 90.207 27.6043C90.207 27.6037 90.207 27.6032 90.207 27.6026C90.207 27.602 90.207 27.6014 90.207 27.6009C90.207 27.6003 90.207 27.5997 90.207 27.5991C90.207 27.5986 90.207 27.598 90.207 27.5974C90.207 27.5969 90.207 27.5963 90.207 27.5957C90.207 27.5951 90.207 27.5946 90.207 27.594C90.207 27.5934 90.207 27.5928 90.207 27.5923C90.207 27.5917 90.207 27.5911 90.207 27.5906C90.207 27.59 90.207 27.5894 90.207 27.5888C90.207 27.5883 90.207 27.5877 90.207 27.5871C90.207 27.5866 90.207 27.586 90.207 27.5854C90.207 27.5848 90.207 27.5843 90.207 27.5837C90.207 27.5831 90.207 27.5826 90.207 27.582C90.207 27.5814 90.207 27.5808 90.207 27.5803C90.207 27.5797 90.207 27.5791 90.207 27.5786C90.207 27.578 90.207 27.5774 90.207 27.5769C90.207 27.5763 90.207 27.5757 90.207 27.5751C90.207 27.5746 90.207 27.574 90.207 27.5734C90.207 27.5729 90.207 27.5723 90.207 27.5717C90.207 27.5712 90.207 27.5706 90.207 27.57C90.207 27.5695 90.207 27.5689 90.207 27.5683C90.207 27.5677 90.207 27.5672 90.207 27.5666C90.207 27.566 90.207 27.5655 90.207 27.5649C90.207 27.5643 90.207 27.5638 90.207 27.5632C90.207 27.5626 90.207 27.5621 90.207 27.5615C90.207 27.5609 90.207 27.5604 90.207 27.5598C90.207 27.5592 90.207 27.5587 90.207 27.5581C90.207 27.5575 90.207 27.557 90.207 27.5564C90.207 27.5558 90.207 27.5553 90.207 27.5547C90.207 27.5541 90.207 27.5536 90.207 27.553C90.207 27.5524 90.207 27.5519 90.207 27.5513C90.207 27.5507 90.207 27.5502 90.207 27.5496C90.207 27.549 90.207 27.5485 90.207 27.5479C90.207 27.5473 90.207 27.5468 90.207 27.5462C90.207 27.5456 90.207 27.5451 90.207 27.5445C90.207 27.5439 90.207 27.5434 90.207 27.5428C90.207 27.5422 90.207 27.5417 90.207 27.5411C90.207 27.5405 90.207 27.54 90.207 27.5394C90.207 27.5389 90.207 27.5383 90.207 27.5377C90.207 27.5372 90.207 27.5366 90.207 27.536C90.207 27.5355 90.207 27.5349 90.207 27.5343C90.207 27.5338 90.207 27.5332 90.207 27.5327C90.207 27.5321 90.207 27.5315 90.207 27.531C90.207 27.5304 90.207 27.5298 90.207 27.5293C90.207 27.5287 90.207 27.5281 90.207 27.5276C90.207 27.527 90.207 27.5265 90.207 27.5259C90.207 27.5253 90.207 27.5248 90.207 27.5242C90.207 27.5236 90.207 27.5231 90.207 27.5225C90.207 27.522 90.207 27.5214 90.207 27.5208C90.207 27.5203 90.207 27.5197 90.207 27.5192C90.207 27.5186 90.207 27.518 90.207 27.5175C90.207 27.5169 90.207 27.5163 90.207 27.5158C90.207 27.5152 90.207 27.5147 90.207 27.5141C90.207 27.5135 90.207 27.513 90.207 27.5124C90.207 27.5119 90.207 27.5113 90.207 27.5107C90.207 27.5102 90.207 27.5096 90.207 27.5091C90.207 27.5085 90.207 27.5079 90.207 27.5074C90.207 27.5068 90.207 27.5063 90.207 27.5057C90.207 27.5051 90.207 27.5046 90.207 27.504C90.207 27.5035 90.207 27.5029 90.207 27.5023C90.207 27.5018 90.207 27.5012 90.207 27.5007C90.207 27.5001 90.207 27.4995 90.207 27.499C90.207 27.4984 90.207 27.4979 90.207 27.4973C90.207 27.4968 90.207 27.4962 90.207 27.4956C90.207 27.4951 90.207 27.4945 90.207 27.494C90.207 27.4934 90.207 27.4928 90.207 27.4923C90.207 27.4917 90.207 27.4912 90.207 27.4906C90.207 27.4901 90.207 27.4895 90.207 27.4889C90.207 27.4884 90.207 27.4878 90.207 27.4873C90.207 27.4867 90.207 27.4862 90.207 27.4856C90.207 27.485 90.207 27.4845 90.207 27.4839C90.207 27.4834 90.207 27.4828 90.207 27.4823C90.207 27.4817 90.207 27.4811 90.207 27.4806C90.207 27.48 90.207 27.4795 90.207 27.4789C90.207 27.4784 90.207 27.4778 90.207 27.4773C90.207 27.4767 90.207 27.4761 90.207 27.4756C90.207 27.475 90.207 27.4745 90.207 27.4739C90.207 27.4734 90.207 27.4728 90.207 27.4723C90.207 27.4717 90.207 27.4712 90.207 27.4706C90.207 27.47 90.207 27.4695 90.207 27.4689C90.207 27.4684 90.207 27.4678 90.207 27.4673C90.207 27.4667 90.207 27.4662 90.207 27.4656C90.207 27.4651 90.207 27.4645 90.207 27.464C90.207 27.4634 90.207 27.4628 90.207 27.4623C90.207 27.4617 90.207 27.4612 90.207 27.4606C90.207 27.4601 90.207 27.4595 90.207 27.459C90.207 27.4584 90.207 27.4579 90.207 27.4573C90.207 27.4568 90.207 27.4562 90.207 27.4557C90.207 27.4551 90.207 27.4546 90.207 27.454C90.207 27.4534 90.207 27.4529 90.207 27.4523C90.207 27.4518 90.207 27.4512 90.207 27.4507C90.207 27.4501 90.207 27.4496 90.207 27.449C90.207 27.4485 90.207 27.4479 90.207 27.4474C90.207 27.4468 90.207 27.4463 90.207 27.4457C90.207 27.4452 90.207 27.4446 90.207 27.4441C90.207 27.4435 90.207 27.443 90.207 27.4424C90.207 27.4419 90.207 27.4413 90.207 27.4408C90.207 27.4402 90.207 27.4397 90.207 27.4391C90.207 27.4386 90.207 27.438 90.207 27.4375C90.207 27.4369 90.207 27.4364 90.207 27.4358C90.207 27.4353 90.207 27.4347 90.207 27.4342C90.207 27.4336 90.207 27.4331 90.207 27.4325C90.207 27.432 90.207 27.4314 90.207 27.4309C90.207 27.4303 90.207 27.4298 90.207 27.4292C90.207 27.4287 90.207 27.4281 90.207 27.4276C90.207 27.427 90.207 27.4265 90.207 27.4259C90.207 27.4254 90.207 27.4249 90.207 27.4243C90.207 27.4238 90.207 27.4232 90.207 27.4227C90.207 27.4221 90.207 27.4216 90.207 27.421C90.207 27.4205 90.207 27.4199 90.207 27.4194C90.207 27.4188 90.207 27.4183 90.207 27.4177C90.207 27.4172 90.207 27.4166 90.207 27.4161C90.207 27.4156 90.207 27.415 90.207 27.4145C90.207 27.4139 90.207 27.4134 90.207 27.4128C90.207 27.4123 90.207 27.4117 90.207 27.4112C90.207 27.4106 90.207 27.4101 90.207 27.4095C90.207 27.409 90.207 27.4085 90.207 27.4079C90.207 27.4074 90.207 27.4068 90.207 27.4063C90.207 27.4057 90.207 27.4052 90.207 27.4046C90.207 27.4041 90.207 27.4036 90.207 27.403C90.207 27.4025 90.207 27.4019 90.207 27.4014C90.207 27.4008 90.207 27.4003 90.207 27.3997C90.207 27.3992 90.207 27.3987 90.207 27.3981C90.207 27.3976 90.207 27.397 90.207 27.3965C90.207 27.3959 90.207 27.3954 90.207 27.3948C90.207 27.3943 90.207 27.3938 90.207 27.3932C90.207 27.3927 90.207 27.3921 90.207 27.3916C90.207 27.391 90.207 27.3905 90.207 27.39C90.207 27.3894 90.207 27.3889 90.207 27.3883C90.207 27.3878 90.207 27.3873 90.207 27.3867C90.207 27.3862 90.207 27.3856 90.207 27.3851C90.207 27.3845 90.207 27.384 90.207 27.3835C90.207 27.3829 90.207 27.3824 90.207 27.3818C90.207 27.3813 90.207 27.3808 90.207 27.3802C90.207 27.3797 90.207 27.3791 90.207 27.3786C90.207 27.378 90.207 27.3775 90.207 27.377C90.207 27.3764 90.207 27.3759 90.207 27.3753C90.207 27.3748 90.207 27.3743 90.207 27.3737C90.207 27.3732 90.207 27.3726 90.207 27.3721C90.207 27.3716 90.207 27.371 90.207 27.3705C90.207 27.3699 90.207 27.3694 90.207 27.3689C90.207 27.3683 90.207 27.3678 90.207 27.3672C90.207 27.3667 90.207 27.3662 90.207 27.3656C90.207 27.3651 90.207 27.3646 90.207 27.364C90.207 27.3635 90.207 27.3629 90.207 27.3624C90.207 27.3619 90.207 27.3613 90.207 27.3608C90.207 27.3602 90.207 27.3597 90.207 27.3592C90.207 27.3586 90.207 27.3581 90.207 27.3576C90.207 27.357 90.207 27.3565 90.207 27.3559C90.207 27.3554 90.207 27.3549 90.207 27.3543C90.207 27.3538 90.207 27.3533 90.207 27.3527C90.207 27.3522 90.207 27.3516 90.207 27.3511C90.207 27.3506 90.207 27.35 90.207 27.3495C90.207 27.349 90.207 27.3484 90.207 27.3479C90.207 27.3474 90.207 27.3468 90.207 27.3463C90.207 27.3457 90.207 27.3452 90.207 27.3447C90.207 27.3441 90.207 27.3436 90.207 27.3431C90.207 27.3425 90.207 27.342 90.207 27.3415C90.207 27.3409 90.207 27.3404 90.207 27.3399C90.207 27.3393 90.207 27.3388 90.207 27.3383C90.207 27.3377 90.207 27.3372 90.207 27.3366C90.207 27.3361 90.207 27.3356 90.207 27.335C90.207 27.3345 90.207 27.334 90.207 27.3334C90.207 27.3329 90.207 27.3324 90.207 27.3318C90.207 27.3313 90.207 27.3308 90.207 27.3302C90.207 27.3297 90.207 27.3292 90.207 27.3286C90.207 27.3281 90.207 27.3276 90.207 27.327C90.207 27.3265 90.207 27.326 90.207 27.3254C90.207 27.3249 90.207 27.3244 90.207 27.3238C90.207 27.3233 90.207 27.3228 90.207 27.3222C90.207 27.3217 90.207 27.3212 90.207 27.3206C90.207 27.3201 90.207 27.3196 90.207 27.3191C90.207 27.3185 90.207 27.318 90.207 27.3175C90.207 27.3169 90.207 27.3164 90.207 27.3159C90.207 27.3153 90.207 27.3148 90.207 27.3143C90.207 27.3137 90.207 27.3132 90.207 27.3127C90.207 27.3121 90.207 27.3116 90.207 27.3111C90.207 27.3106 90.207 27.31 90.207 27.3095C90.207 27.309 90.207 27.3084 90.207 27.3079C90.207 27.3074 90.207 27.3068 90.207 27.3063C90.207 27.3058 90.207 27.3053 90.207 27.3047C90.207 27.3042 90.207 27.3037 90.207 27.3031C90.207 27.3026 90.207 27.3021 90.207 27.3015C90.207 27.301 90.207 27.3005 90.207 27.3C90.207 27.2994 90.207 27.2989 90.207 27.2984C90.207 27.2978 90.207 27.2973 90.207 27.2968C90.207 27.2963 90.207 27.2957 90.207 27.2952C90.207 27.2947 90.207 27.2941 90.207 27.2936C90.207 27.2931 90.207 27.2926 90.207 27.292C90.207 27.2915 90.207 27.291 90.207 27.2905C90.207 27.2899 90.207 27.2894 90.207 27.2889C90.207 27.2883 90.207 27.2878 90.207 27.2873C90.207 27.2868 90.207 27.2862 90.207 27.2857C90.207 27.2852 90.207 27.2847 90.207 27.2841C90.207 27.2836 90.207 27.2831 90.207 27.2826C90.207 27.282 90.207 27.2815 90.207 27.281C90.207 27.2804 90.207 27.2799 90.207 27.2794C90.207 27.2789 90.207 27.2783 90.207 27.2778C90.207 27.2773 90.207 27.2768 90.207 27.2762C90.207 27.2757 90.207 27.2752 90.207 27.2747C90.207 27.2741 90.207 27.2736 90.207 27.2731C90.207 27.2726 90.207 27.272 90.207 27.2715C90.207 27.271 90.207 27.2705 90.207 27.2699C90.207 27.2694 90.207 27.2689 90.207 27.2684C90.207 27.2678 90.207 27.2673 90.207 27.2668C90.207 27.2663 90.207 27.2658 90.207 27.2652C90.207 27.2647 90.207 27.2642 90.207 27.2637C90.207 27.2631 90.207 27.2626 90.207 27.2621C90.207 27.2616 90.207 27.261 90.207 27.2605C90.207 27.26 90.207 27.2595 90.207 27.259C90.207 27.2584 90.207 27.2579 90.207 27.2574C90.207 27.2569 90.207 27.2563 90.207 27.2558C90.207 27.2553 90.207 27.2548 90.207 27.2543C90.207 27.2537 90.207 27.2532 90.207 27.2527C90.207 27.2522 90.207 27.2516 90.207 27.2511C90.207 27.2506 90.207 27.2501 90.207 27.2496C90.207 27.249 90.207 27.2485 90.207 27.248C90.207 27.2475 90.207 27.247 90.207 27.2464C90.207 27.2459 90.207 27.2454 90.207 27.2449C90.207 27.2444 90.207 27.2438 90.207 27.2433C90.207 27.2428 90.207 27.2423 90.207 27.2418C90.207 27.2412 90.207 27.2407 90.207 27.2402C90.207 27.2397 90.207 27.2392 90.207 27.2386C90.207 27.2381 90.207 27.2376 90.207 27.2371C90.207 27.2366 90.207 27.236 90.207 27.2355C90.207 27.235 90.207 27.2345 90.207 27.234C90.207 27.2334 90.207 27.2329 90.207 27.2324C90.207 27.2319 90.207 27.2314 90.207 27.2309C90.207 27.2303 90.207 27.2298 90.207 27.2293C90.207 27.2288 90.207 27.2283 90.207 27.2277C90.207 27.2272 90.207 27.2267 90.207 27.2262C90.207 27.2257 90.207 27.2252 90.207 27.2246C90.207 27.2241 90.207 27.2236 90.207 27.2231C90.207 27.2226 90.207 27.2221 90.207 27.2215C90.207 27.221 90.207 27.2205 90.207 27.22C90.207 27.2195 90.207 27.219 90.207 27.2184C90.207 27.2179 90.207 27.2174 90.207 27.2169C90.207 27.2164 90.207 27.2159 90.207 27.2153C90.207 27.2148 90.207 27.2143 90.207 27.2138C90.207 27.2133 90.207 27.2128 90.207 27.2123C90.207 27.2117 90.207 27.2112 90.207 27.2107C90.207 27.2102 90.207 27.2097 90.207 27.2092C90.207 27.2087 90.207 27.2081 90.207 27.2076C90.207 27.2071 90.207 27.2066 90.207 27.2061C90.207 27.2056 90.207 27.2051 90.207 27.2045C90.207 27.204 90.207 27.2035 90.207 27.203C90.207 27.2025 90.207 27.202 90.207 27.2015C90.207 27.2009 90.207 27.2004 90.207 27.1999C90.207 27.1994 90.207 27.1989 90.207 27.1984C90.207 27.1979 90.207 27.1973 90.207 27.1968C90.207 27.1963 90.207 27.1958 90.207 27.1953C90.207 27.1948 90.207 27.1943 90.207 27.1938C90.207 27.1932 90.207 27.1927 90.207 27.1922C90.207 27.1917 90.207 27.1912 90.207 27.1907C90.207 27.1902 90.207 27.1897 90.207 27.1892C90.207 27.1886 90.207 27.1881 90.207 27.1876C90.207 27.1871 90.207 27.1866 90.207 27.1861C90.207 27.1856 90.207 27.1851 90.207 27.1846C90.207 27.184 90.207 27.1835 90.207 27.183C90.207 27.1825 90.207 27.182 90.207 27.1815C90.207 27.181 90.207 27.1805 90.207 27.18C90.207 27.1794 90.207 27.1789 90.207 27.1784C90.207 27.1779 90.207 27.1774 90.207 27.1769C90.207 27.1764 90.207 27.1759 90.207 27.1754C90.207 27.1749 90.207 27.1744 90.207 27.1738C90.207 27.1733 90.207 27.1728 90.207 27.1723C90.207 27.1718 90.207 27.1713 90.207 27.1708C90.207 27.1703 90.207 27.1698 90.207 27.1693C90.207 27.1688 90.207 27.1682 90.207 27.1677C90.207 27.1672 90.207 27.1667 90.207 27.1662C90.207 27.1657 90.207 27.1652 90.207 27.1647C90.207 27.1642 90.207 27.1637 90.207 27.1632C90.207 27.1627 90.207 27.1622 90.207 27.1616C90.207 27.1611 90.207 27.1606 90.207 27.1601C90.207 27.1596 90.207 27.1591 90.207 27.1586C90.207 27.1581 90.207 27.1576 90.207 27.1571C90.207 27.1566 90.207 27.1561 90.207 27.1556C90.207 27.1551 90.207 27.1546 90.207 27.154C90.207 27.1535 90.207 27.153 90.207 27.1525C90.207 27.152 90.207 27.1515 90.207 27.151C90.207 27.1505 90.207 27.15 90.207 27.1495C90.207 27.149 90.207 27.1485 90.207 27.148C90.207 27.1475 90.207 27.147 90.207 27.1465C90.207 27.146 90.207 27.1455 90.207 27.145C90.207 27.1445 90.207 27.1439 90.207 27.1434C90.207 27.1429 90.207 27.1424 90.207 27.1419C90.207 27.1414 90.207 27.1409 90.207 27.1404C90.207 27.1399 90.207 27.1394 90.207 27.1389C90.207 27.1384 90.207 27.1379 90.207 27.1374C90.207 27.1369 90.207 27.1364 90.207 27.1359C90.207 27.1354 90.207 27.1349 90.207 27.1344C90.207 27.1339 90.207 27.1334 90.207 27.1329C90.207 27.1324 90.207 27.1319 90.207 27.1314C90.207 27.1309 90.207 27.1304 90.207 27.1299C90.207 27.1294 90.207 27.1289 90.207 27.1284C90.207 27.1279 90.207 27.1273 90.207 27.1268C90.207 27.1263 90.207 27.1258 90.207 27.1253C90.207 27.1248 90.207 27.1243 90.207 27.1238C90.207 27.1233 90.207 27.1228 90.207 27.1223C90.207 27.1218 90.207 27.1213 90.207 27.1208C90.207 27.1203 90.207 27.1198 90.207 27.1193C90.207 27.1188 90.207 27.1183 90.207 27.1178C90.207 27.1173 90.207 27.1168 90.207 27.1163C90.207 27.1158 90.207 27.1153 90.207 27.1148C90.207 27.1143 90.207 27.1138 90.207 27.1133C90.207 27.1128 90.207 27.1123 90.207 27.1118C90.207 27.1113 90.207 27.1108 90.207 27.1103C90.207 27.1098 90.207 27.1093 90.207 27.1088C90.207 27.1083 90.207 27.1078 90.207 27.1073C90.207 27.1069 90.207 27.1064 90.207 27.1059C90.207 27.1054 90.207 27.1049 90.207 27.1044C90.207 27.1039 90.207 27.1034 90.207 27.1029C90.207 27.1024 90.207 27.1019 90.207 27.1014C90.207 27.1009 90.207 27.1004 90.207 27.0999C90.207 27.0994 90.207 27.0989 90.207 27.0984C90.207 27.0979 90.207 27.0974 90.207 27.0969C90.207 27.0964 90.207 27.0959 90.207 27.0954C90.207 27.0949 90.207 27.0944 90.207 27.0939C90.207 27.0934 90.207 27.0929 90.207 27.0924C90.207 27.0919 90.207 27.0914 90.207 27.0909C90.207 27.0905 90.207 27.09 90.207 27.0895C90.207 27.089 90.207 27.0885 90.207 27.088C90.207 27.0875 90.207 27.087 90.207 27.0865C90.207 27.086 90.207 27.0855 90.207 27.085C90.207 27.0845 90.207 27.084 90.207 27.0835C90.207 27.083 90.207 27.0825 90.207 27.082C90.207 27.0815 90.207 27.081 90.207 27.0806C90.207 27.0801 90.207 27.0796 90.207 27.0791C90.207 27.0786 90.207 27.0781 90.207 27.0776C90.207 27.0771 90.207 27.0766 90.207 27.0761C90.207 27.0756 90.207 27.0751 90.207 27.0746C90.207 27.0741 90.207 27.0736 90.207 27.0732C90.207 27.0727 90.207 27.0722 90.207 27.0717C90.207 27.0712 90.207 27.0707 90.207 27.0702C90.207 27.0697 90.207 27.0692 90.207 27.0687C90.207 27.0682 90.207 27.0677 90.207 27.0672C90.207 27.0668 90.207 27.0663 90.207 27.0658C90.207 27.0653 90.207 27.0648 90.207 27.0643C90.207 27.0638 90.207 27.0633 90.207 27.0628C90.207 27.0623 90.207 27.0618 90.207 27.0614C90.207 27.0609 90.207 27.0604 90.207 27.0599C90.207 27.0594 90.207 27.0589 90.207 27.0584C90.207 27.0579 90.207 27.0574 90.207 27.0569C90.207 27.0564 90.207 27.056 90.207 27.0555C90.207 27.055 90.207 27.0545 90.207 27.054C90.207 27.0535 90.207 27.053 90.207 27.0525C90.207 27.052 90.207 27.0516 90.207 27.0511C90.207 27.0506 90.207 27.0501 90.207 27.0496C90.207 27.0491 90.207 27.0486 90.207 27.0481C90.207 27.0476 90.207 27.0472 90.207 27.0467C90.207 27.0462 90.207 27.0457 90.207 27.0452C90.207 27.0447 90.207 27.0442 90.207 27.0437C90.207 27.0432 90.207 27.0428 90.207 27.0423C90.207 27.0418 90.207 27.0413 90.207 27.0408C90.207 27.0403 90.207 27.0398 90.207 27.0393C90.207 27.0389 90.207 27.0384 90.207 27.0379C90.207 27.0374 90.207 27.0369 90.207 27.0364C90.207 27.0359 90.207 27.0355 90.207 27.035C90.207 27.0345 90.207 27.034 90.207 27.0335C90.207 27.033 90.207 27.0325 90.207 27.0321C90.207 27.0316 90.207 27.0311 90.207 27.0306C90.207 27.0301 90.207 27.0296 90.207 27.0291C90.207 27.0287 90.207 27.0282 90.207 27.0277C90.207 27.0272 90.207 27.0267 90.207 27.0262C90.207 27.0257 90.207 27.0253 90.207 27.0248C90.207 27.0243 90.207 27.0238 90.207 27.0233C90.207 27.0228 90.207 27.0223 90.207 27.0219C90.207 27.0214 90.207 27.0209 90.207 27.0204C90.207 27.0199 90.207 27.0194 90.207 27.019C90.207 27.0185 90.207 27.018 90.207 27.0175C90.207 27.017 90.207 27.0165 90.207 27.0161C90.207 27.0156 90.207 27.0151 90.207 27.0146C90.207 27.0141 90.207 27.0136 90.207 27.0132C90.207 27.0127 90.207 27.0122 90.207 27.0117C90.207 27.0112 90.207 27.0107 90.207 27.0103C90.207 27.0098 90.207 27.0093 90.207 27.0088C90.207 27.0083 90.207 27.0079 90.207 27.0074C90.207 27.0069 90.207 27.0064 90.207 27.0059C90.207 27.0054 90.207 27.005 90.207 27.0045C90.207 27.004 90.207 27.0035 90.207 27.003C90.207 27.0026 90.207 27.0021 90.207 27.0016C90.207 27.0011 90.207 27.0006 90.207 27.0002C90.207 26.9997 90.207 26.9992 90.207 26.9987C90.207 26.9982 90.207 26.9978 90.207 26.9973C90.207 26.9968 90.207 26.9963 90.207 26.9958C90.207 26.9954 90.207 26.9949 90.207 26.9944C90.207 26.9939 90.207 26.9934 90.207 26.993C90.207 26.9925 90.207 26.992 90.207 26.9915C90.207 26.991 90.207 26.9906 90.207 26.9901C90.207 26.9896 90.207 26.9891 90.207 26.9886C90.207 26.9882 90.207 26.9877 90.207 26.9872C90.207 26.9867 90.207 26.9863 90.207 26.9858C90.207 26.9853 90.207 26.9848 90.207 26.9843C90.207 26.9839 90.207 26.9834 90.207 26.9829C90.207 26.9824 90.207 26.982 90.207 26.9815C90.207 26.981 90.207 26.9805 90.207 26.98C90.207 26.9796 90.207 26.9791 90.207 26.9786C90.207 26.9781 90.207 26.9777 90.207 26.9772C90.207 26.9767 90.207 26.9762 90.207 26.9758C90.207 26.9753 90.207 26.9748 90.207 26.9743C90.207 26.9739 90.207 26.9734 90.207 26.9729C90.207 26.9724 90.207 26.9719 90.207 26.9715C90.207 26.971 90.207 26.9705 90.207 26.97C90.207 26.9696 90.207 26.9691 90.207 26.9686C90.207 26.9681 90.207 26.9677 90.207 26.9672C90.207 26.9667 90.207 26.9662 90.207 26.9658C90.207 26.9653 90.207 26.9648 90.207 26.9643C90.207 26.9639 90.207 26.9634 90.207 26.9629C90.207 26.9624 90.207 26.962 90.207 26.9615C90.207 26.961 90.207 26.9606 90.207 26.9601C90.207 26.9596 90.207 26.9591 90.207 26.9587C90.207 26.9582 90.207 26.9577 90.207 26.9572C90.207 26.9568 90.207 26.9563 90.207 26.9558C90.207 26.9553 90.207 26.9549 90.207 26.9544C90.207 26.9539 90.207 26.9535 90.207 26.953C90.207 26.9525 90.207 26.952 90.207 26.9516C90.207 26.9511 90.207 26.9506 90.207 26.9501C90.207 26.9497 90.207 26.9492 90.207 26.9487C90.207 26.9483 90.207 26.9478 90.207 26.9473C90.207 26.9468 90.207 26.9464 90.207 26.9459C90.207 26.9454 90.207 26.945 90.207 26.9445C90.207 26.944 90.207 26.9435 90.207 26.9431C90.207 26.9426 90.207 26.9421 90.207 26.9417C90.207 26.9412 90.207 26.9407 90.207 26.9403C90.207 26.9398 90.207 26.9393 90.207 26.9388C90.207 26.9384 90.207 26.9379 90.207 26.9374C90.207 26.937 90.207 26.9365 90.207 26.936C90.207 26.9356 90.207 26.9351 90.207 26.9346C90.207 26.9341 90.207 26.9337 90.207 26.9332C90.207 26.9327 90.207 26.9323 90.207 26.9318C90.207 26.9313 90.207 26.9309 90.207 26.9304C90.207 26.9299 90.207 26.9295 90.207 26.929C90.207 26.9285 90.207 26.9281 90.207 26.9276C90.207 26.9271 90.207 26.9266 90.207 26.9262C90.207 26.9257 90.207 26.9252 90.207 26.9248C90.207 26.9243 90.207 26.9238 90.207 26.9234C90.207 26.9229 90.207 26.9224 90.207 26.922C90.207 26.9215 90.207 26.921 90.207 26.9206C90.207 26.9201 90.207 26.9196 90.207 26.9192C90.207 26.9187 90.207 26.9182 90.207 26.9178C90.207 26.9173 90.207 26.9168 90.207 26.9164C90.207 26.9159 90.207 26.9154 90.207 26.915C90.207 26.9145 90.207 26.914 90.207 26.9136C90.207 26.9131 90.207 26.9126 90.207 26.9122C90.207 26.9117 90.207 26.9113 90.207 26.9108C90.207 26.9103 90.207 26.9099 90.207 26.9094C90.207 26.9089 90.207 26.9085 90.207 26.908C90.207 26.9075 90.207 26.9071 90.207 26.9066C90.207 26.9061 90.207 26.9057 90.207 26.9052C90.207 26.9047 90.207 26.9043 90.207 26.9038C90.207 26.9034 90.207 26.9029 90.207 26.9024C90.207 26.902 90.207 26.9015 90.207 26.901C90.207 26.9006 90.207 26.9001 90.207 26.8996C90.207 26.8992 90.207 26.8987 90.207 26.8983C90.207 26.8978 90.207 26.8973 90.207 26.8969C90.207 26.8964 90.207 26.8959 90.207 26.8955C90.207 26.895 90.207 26.8946 90.207 26.8941C90.207 26.8936 90.207 26.8932 90.207 26.8927C90.207 26.8922 90.207 26.8918 90.207 26.8913C90.207 26.8909 90.207 26.8904 90.207 26.8899C90.207 26.8895 90.207 26.889 90.207 26.8886C90.207 26.8881 90.207 26.8876 90.207 26.8872C90.207 26.8867 90.207 26.8862 90.207 26.8858C90.207 26.8853 90.207 26.8849 90.207 26.8844C90.207 26.8839 90.207 26.8835 90.207 26.883C90.207 26.8826 90.207 26.8821 90.207 26.8816C90.207 26.8812 90.207 26.8807 90.207 26.8803C90.207 26.8798 90.207 26.8793 90.207 26.8789C90.207 26.8784 90.207 26.878 90.207 26.8775C90.207 26.877 90.207 26.8766 90.207 26.8761C90.207 26.8757 90.207 26.8752 90.207 26.8748C90.207 26.8743 90.207 26.8738 90.207 26.8734C90.207 26.8729 90.207 26.8725 90.207 26.872H88.207ZM89.207 26.672H76.567V28.672H89.207V26.672ZM75.5684 27.7246C75.6386 29.0594 75.9467 30.2437 76.5435 31.2298L78.2545 30.1942C77.87 29.559 77.6234 28.7166 77.5656 27.6194L75.5684 27.7246ZM76.56 31.2562C77.1529 32.1702 77.9013 32.8896 78.8099 33.3829L79.7641 31.6251C79.1794 31.3077 78.6691 30.8325 78.238 30.1678L76.56 31.2562ZM78.8202 33.3884C79.7295 33.8683 80.7 34.112 81.719 34.112V32.112C81.0313 32.112 80.3805 31.9504 79.7538 31.6196L78.8202 33.3884ZM81.719 34.112C82.9842 34.112 84.1211 33.8184 85.0685 33.1687L83.9375 31.5193C83.3916 31.8936 82.6725 32.112 81.719 32.112V34.112ZM85.0685 33.1687C85.9871 32.5388 86.6551 31.6818 87.0666 30.6275L85.2034 29.9005C84.9322 30.5955 84.5122 31.1252 83.9375 31.5193L85.0685 33.1687ZM86.135 31.264H88.791V29.264H86.135V31.264ZM87.8305 29.9856C87.4621 31.2568 86.7589 32.3104 85.699 33.1658L86.955 34.7222C88.3271 33.6149 89.2666 32.2152 89.7515 30.5424L87.8305 29.9856ZM85.7006 33.1645C84.7207 33.9519 83.4213 34.384 81.719 34.384V36.384C83.7713 36.384 85.5439 35.8561 86.9534 34.7235L85.7006 33.1645ZM81.719 20.016C80.2154 20.016 78.856 20.4857 77.6764 21.4143L78.9136 22.9857C79.7393 22.3357 80.6626 22.016 81.719 22.016V20.016ZM77.6787 21.4125C76.4395 22.3823 75.7745 23.7875 75.604 25.4925L77.594 25.6915C77.7222 24.4099 78.1878 23.5537 78.9113 22.9875L77.6787 21.4125ZM76.599 26.592H86.583V24.592H76.599V26.592ZM87.582 25.5473C87.5081 23.8967 86.9281 22.5032 85.7732 21.4827L84.4488 22.9813C85.1286 23.5821 85.5299 24.4286 85.584 25.6367L87.582 25.5473ZM85.7732 21.4827C84.6547 20.4942 83.2812 20.016 81.719 20.016V22.016C82.8448 22.016 83.7327 22.3485 84.4488 22.9813L85.7732 21.4827ZM96.0018 34.36L95.4941 35.2215L95.5031 35.2269L95.5122 35.232L96.0018 34.36ZM93.1538 31.448L92.2747 31.9248L92.2796 31.9337L92.2846 31.9425L93.1538 31.448ZM93.1538 22.712L92.281 22.2238L92.2782 22.2289L93.1538 22.712ZM96.0018 19.8L96.4979 20.6683L96.5028 20.6654L96.0018 19.8ZM104.834 20.216L104.225 21.0096L104.232 21.0144L104.834 20.216ZM107.298 24.152V25.152H108.527L108.277 23.9486L107.298 24.152ZM104.546 24.152L103.569 24.3644L103.74 25.152H104.546V24.152ZM102.978 21.88L102.423 22.712L102.431 22.717L102.438 22.7219L102.978 21.88ZM95.6178 23.736L94.7407 23.2557L94.7407 23.2557L95.6178 23.736ZM95.6178 30.392L96.4948 29.9117L96.4948 29.9117L95.6178 30.392ZM97.5378 32.44L97.0267 33.2995L97.0354 33.3047L97.0441 33.3097L97.5378 32.44ZM102.978 32.312L103.517 33.1539L103.525 33.149L103.532 33.1441L102.978 32.312ZM104.546 29.976V28.976H103.736L103.568 29.7679L104.546 29.976ZM107.298 29.976L108.278 30.1721L108.518 28.976H107.298V29.976ZM104.866 33.88L104.255 33.0879L104.255 33.0879L104.866 33.88ZM100.098 34.384C98.7393 34.384 97.5451 34.0796 96.4913 33.488L95.5122 35.232C96.8904 36.0057 98.4268 36.384 100.098 36.384V34.384ZM96.5094 33.4985C95.4694 32.8856 94.6429 32.0432 94.0229 30.9535L92.2846 31.9425C93.0726 33.3274 94.1448 34.4264 95.4941 35.2215L96.5094 33.4985ZM94.0328 30.9712C93.4415 29.8811 93.1298 28.5886 93.1298 27.064H91.1298C91.1298 28.8674 91.5007 30.4976 92.2747 31.9248L94.0328 30.9712ZM93.1298 27.064C93.1298 25.5389 93.4417 24.2602 94.0293 23.1951L92.2782 22.2289C91.5005 23.6385 91.1298 25.2611 91.1298 27.064H93.1298ZM94.0265 23.2002C94.6463 22.0921 95.4687 21.2563 96.4979 20.6682L95.5056 18.9318C94.1455 19.709 93.0692 20.8146 92.281 22.2238L94.0265 23.2002ZM96.5028 20.6654C97.5547 20.0564 98.7448 19.744 100.098 19.744V17.744C98.4213 17.744 96.8808 18.1356 95.5007 18.9346L96.5028 20.6654ZM100.098 19.744C101.793 19.744 103.148 20.1833 104.225 21.0096L105.442 19.4224C103.96 18.286 102.158 17.744 100.098 17.744V19.744ZM104.232 21.0144C105.333 21.8451 106.025 22.9426 106.319 24.3554L108.277 23.9486C107.888 22.0761 106.937 20.5496 105.436 19.4176L104.232 21.0144ZM107.298 23.152H104.546V25.152H107.298V23.152ZM105.523 23.9396C105.254 22.7034 104.577 21.7174 103.517 21.0381L102.438 22.7219C103.042 23.1093 103.411 23.638 103.569 24.3644L105.523 23.9396ZM103.532 21.0479C102.518 20.372 101.35 20.048 100.066 20.048V22.048C101 22.048 101.773 22.2787 102.423 22.712L103.532 21.0479ZM100.066 20.048C98.9944 20.048 97.9819 20.3181 97.0441 20.8503L98.0314 22.5897C98.6722 22.2259 99.3451 22.048 100.066 22.048V20.048ZM97.0441 20.8503C96.0737 21.4011 95.309 22.2178 94.7407 23.2557L96.4948 24.2163C96.9078 23.4622 97.4232 22.9349 98.0314 22.5897L97.0441 20.8503ZM94.7407 23.2557C94.149 24.336 93.8818 25.6216 93.8818 27.064H95.8818C95.8818 25.8611 96.1051 24.928 96.4948 24.2163L94.7407 23.2557ZM93.8818 27.064C93.8818 28.5064 94.149 29.792 94.7407 30.8723L96.4948 29.9117C96.1051 29.2 95.8818 28.2669 95.8818 27.064H93.8818ZM94.7407 30.8723C95.3073 31.9071 96.0668 32.7288 97.0267 33.2995L98.0488 31.5805C97.43 31.2125 96.9095 30.6689 96.4948 29.9117L94.7407 30.8723ZM97.0441 33.3097C97.9819 33.8419 98.9944 34.112 100.066 34.112V32.112C99.3451 32.112 98.6722 31.9341 98.0314 31.5703L97.0441 33.3097ZM100.066 34.112C101.342 34.112 102.505 33.8028 103.517 33.1539L102.438 31.4701C101.786 31.8879 101.008 32.112 100.066 32.112V34.112ZM103.532 33.1441C104.588 32.4406 105.258 31.4349 105.524 30.1841L103.568 29.7679C103.407 30.5225 103.032 31.0741 102.423 31.4799L103.532 33.1441ZM104.546 30.976H107.298V28.976H104.546V30.976ZM106.317 29.7799C106.045 31.1412 105.367 32.2315 104.255 33.0879L105.476 34.6721C106.967 33.5231 107.911 32.0108 108.278 30.1721L106.317 29.7799ZM104.255 33.0879C103.153 33.9369 101.787 34.384 100.098 34.384V36.384C102.163 36.384 103.975 35.8284 105.476 34.6721L104.255 33.0879ZM111.052 35H110.052V36H111.052V35ZM111.052 11.96V10.96H110.052V11.96H111.052ZM113.74 11.96H114.74V10.96H113.74V11.96ZM113.74 21.848H112.74L114.618 22.3255L113.74 21.848ZM116.012 19.576L116.489 20.4546L116.497 20.4507L116.504 20.4466L116.012 19.576ZM123.628 20.472L122.907 21.1657L122.914 21.1723L123.628 20.472ZM125.292 35V36H126.292V35H125.292ZM122.636 35H121.636V36H122.636V35ZM115.148 22.552L115.87 23.2433L115.878 23.2354L115.148 22.552ZM113.74 35V36H114.74V35H113.74ZM112.052 35V11.96H110.052V35H112.052ZM111.052 12.96H113.74V10.96H111.052V12.96ZM112.74 11.96V21.848H114.74V11.96H112.74ZM114.618 22.3255C115.06 21.5138 115.678 20.8958 116.489 20.4546L115.534 18.6974C114.383 19.3229 113.487 20.2195 112.861 21.3705L114.618 22.3255ZM116.504 20.4466C117.332 19.9787 118.228 19.744 119.212 19.744V17.744C117.891 17.744 116.655 18.064 115.52 18.7054L116.504 20.4466ZM119.212 19.744C120.818 19.744 122.015 20.2388 122.907 21.1656L124.348 19.7784C123.022 18.4012 121.275 17.744 119.212 17.744V19.744ZM122.914 21.1723C123.766 22.0412 124.292 23.486 124.292 25.72H126.292C126.292 23.218 125.708 21.1641 124.342 19.7717L122.914 21.1723ZM124.292 25.72V35H126.292V25.72H124.292ZM125.292 34H122.636V36H125.292V34ZM123.636 35V26.008H121.636V35H123.636ZM123.636 26.008C123.636 24.2464 123.285 22.7399 122.414 21.6602C121.51 20.5395 120.187 20.048 118.636 20.048V22.048C119.751 22.048 120.428 22.3832 120.857 22.9158C121.32 23.4894 121.636 24.4629 121.636 26.008H123.636ZM118.636 20.048C116.975 20.048 115.548 20.6618 114.418 21.8686L115.878 23.2354C116.625 22.4369 117.523 22.048 118.636 22.048V20.048ZM114.425 21.8608C113.253 23.0857 112.74 24.7761 112.74 26.776H114.74C114.74 25.1065 115.165 23.981 115.87 23.2432L114.425 21.8608ZM112.74 26.776V35H114.74V26.776H112.74ZM113.74 34H111.052V36H113.74V34ZM128.948 34.648L128.22 35.3334L128.241 35.3554L128.263 35.3762L128.948 34.648ZM128.948 32.056L128.241 31.3489L128.241 31.3489L128.948 32.056ZM131.572 32.056L130.844 32.7414L130.865 32.7634L130.887 32.7842L131.572 32.056ZM131.572 34.648L132.279 35.3551L132.279 35.3551L131.572 34.648ZM130.292 34.16C129.994 34.16 129.797 34.0734 129.634 33.9198L128.263 35.3762C128.825 35.9052 129.524 36.16 130.292 36.16V34.16ZM129.676 33.9626C129.515 33.7912 129.436 33.6012 129.436 33.336H127.436C127.436 34.0948 127.699 34.7795 128.22 35.3334L129.676 33.9626ZM129.436 33.336C129.436 33.0714 129.514 32.9046 129.655 32.7631L128.241 31.3489C127.7 31.89 127.436 32.5766 127.436 33.336H129.436ZM129.655 32.7631C129.822 32.5962 130.012 32.512 130.292 32.512V30.512C129.505 30.512 128.8 30.7905 128.241 31.3489L129.655 32.7631ZM130.292 32.512C130.537 32.512 130.698 32.5858 130.844 32.7414L132.3 31.3706C131.764 30.8009 131.071 30.512 130.292 30.512V32.512ZM130.887 32.7842C131.042 32.9307 131.116 33.091 131.116 33.336H133.116C133.116 32.557 132.827 31.864 132.258 31.3278L130.887 32.7842ZM131.116 33.336C131.116 33.5823 131.041 33.7654 130.865 33.9409L132.279 35.3551C132.829 34.8053 133.116 34.1137 133.116 33.336H131.116ZM130.865 33.9409C130.724 34.0824 130.557 34.16 130.292 34.16V36.16C131.052 36.16 131.738 35.8962 132.279 35.3551L130.865 33.9409Z" fill="#2D9CDB"/>
</svg>
